<svg width="923" height="723" viewBox="0 0 923 723" fill="none" xmlns="http://www.w3.org/2000/svg">
<g opacity="0.35">
<path d="M133.443 0H144.564V11.1231H133.443V0Z" fill="#FF9D9B"/>
<path d="M133.443 22.2452H144.564V33.3683H133.443V22.2452Z" fill="#FF9D9B"/>
<path d="M155.683 0H166.804V11.1231H155.683V0Z" fill="#FF9D9B"/>
<path d="M177.926 0H189.047V11.1231H177.926V0Z" fill="#FF9D9B"/>
<path d="M155.683 22.2452H166.804V33.3683H155.683V22.2452Z" fill="#FF9D9B"/>
<path d="M155.683 44.4904H166.804V55.6135H155.683V44.4904Z" fill="#FF9D9B"/>
<path d="M133.443 44.4904H144.564V55.6135H133.443V44.4904Z" fill="#FF9D9B"/>
<path d="M177.926 22.2452H189.047V33.3683H177.926V22.2452Z" fill="#FF9D9B"/>
<path d="M177.926 44.4904H189.047V55.6135H177.926V44.4904Z" fill="#FF9D9B"/>
<path d="M789.557 0H778.436V11.1231H789.557V0Z" fill="#FECCCB"/>
<path d="M789.557 22.2452H778.436V33.3683H789.557V22.2452Z" fill="#FECCCB"/>
<path d="M767.317 0H756.196V11.1231H767.317V0Z" fill="#FECCCB"/>
<path d="M745.074 0H733.953V11.1231H745.074V0Z" fill="#FECCCB"/>
<path d="M767.317 22.2452H756.196V33.3683H767.317V22.2452Z" fill="#FECCCB"/>
<path d="M767.317 44.4904H756.196V55.6135H767.317V44.4904Z" fill="#FECCCB"/>
<path d="M789.557 44.4904H778.436V55.6135H789.557V44.4904Z" fill="#FECCCB"/>
<path d="M745.074 22.2452H733.953V33.3683H745.074V22.2452Z" fill="#FECCCB"/>
<path d="M745.074 44.4904H733.953V55.6135H745.074V44.4904Z" fill="#FECCCB"/>
<path d="M133.443 66.7375H144.564V77.8606H133.443V66.7375Z" fill="#FECCCB"/>
<path d="M133.443 88.9827H144.564V100.106H133.443V88.9827Z" fill="#FECCCB"/>
<path d="M155.683 66.7375H166.804V77.8606H155.683V66.7375Z" fill="#FECCCB"/>
<path d="M177.926 66.7375H189.047V77.8606H177.926V66.7375Z" fill="#FECCCB"/>
<path d="M155.683 88.9827H166.804V100.106H155.683V88.9827Z" fill="#FECCCB"/>
<path d="M155.683 111.228H166.804V122.351H155.683V111.228Z" fill="#FECCCB"/>
<path d="M133.443 111.228H144.564V122.351H133.443V111.228Z" fill="#FECCCB"/>
<path d="M177.926 88.9827H189.047V100.106H177.926V88.9827Z" fill="#FECCCB"/>
<path d="M177.926 111.228H189.047V122.351H177.926V111.228Z" fill="#FECCCB"/>
<path d="M789.557 66.7375H778.436V77.8606H789.557V66.7375Z" fill="#FECCCB"/>
<path d="M789.557 88.9827H778.436V100.106H789.557V88.9827Z" fill="#FECCCB"/>
<path d="M767.317 66.7375H756.196V77.8606H767.317V66.7375Z" fill="#FECCCB"/>
<path d="M745.074 66.7375H733.953V77.8606H745.074V66.7375Z" fill="#FECCCB"/>
<path d="M767.317 88.9827H756.196V100.106H767.317V88.9827Z" fill="#FECCCB"/>
<path d="M767.317 111.228H756.196V122.351H767.317V111.228Z" fill="#FECCCB"/>
<path d="M789.557 111.228H778.436V122.351H789.557V111.228Z" fill="#FECCCB"/>
<path d="M745.074 88.9827H733.953V100.106H745.074V88.9827Z" fill="#FECCCB"/>
<path d="M745.074 111.228H733.953V122.351H745.074V111.228Z" fill="#FECCCB"/>
<path d="M133.443 133.475H144.564V144.598H133.443V133.475Z" fill="#FECCCB"/>
<path d="M133.443 155.72H144.564V166.843H133.443V155.72Z" fill="#FECCCB"/>
<path d="M155.683 133.475H166.804V144.598H155.683V133.475Z" fill="#FECCCB"/>
<path d="M177.926 133.475H189.047V144.598H177.926V133.475Z" fill="#FECCCB"/>
<path d="M155.683 155.72H166.804V166.843H155.683V155.72Z" fill="#FECCCB"/>
<path d="M155.683 177.965H166.804V189.089H155.683V177.965Z" fill="#FECCCB"/>
<path d="M133.443 177.965H144.564V189.089H133.443V177.965Z" fill="#FECCCB"/>
<path d="M177.926 155.72H189.047V166.843H177.926V155.72Z" fill="#FECCCB"/>
<path d="M177.926 177.965H189.047V189.089H177.926V177.965Z" fill="#FECCCB"/>
<path d="M789.557 133.475H778.436V144.598H789.557V133.475Z" fill="#FECCCB"/>
<path d="M789.557 155.72H778.436V166.843H789.557V155.72Z" fill="#FECCCB"/>
<path d="M767.317 133.475H756.196V144.598H767.317V133.475Z" fill="#FECCCB"/>
<path d="M745.074 133.475H733.953V144.598H745.074V133.475Z" fill="#FECCCB"/>
<path d="M767.317 155.72H756.196V166.843H767.317V155.72Z" fill="#FECCCB"/>
<path d="M767.317 177.965H756.196V189.089H767.317V177.965Z" fill="#FECCCB"/>
<path d="M789.557 177.965H778.436V189.089H789.557V177.965Z" fill="#FECCCB"/>
<path d="M745.074 155.72H733.953V166.843H745.074V155.72Z" fill="#FECCCB"/>
<path d="M745.074 177.965H733.953V189.089H745.074V177.965Z" fill="#FECCCB"/>
<path d="M133.443 200.213H144.564V211.336H133.443V200.213Z" fill="#FECCCB"/>
<path d="M133.443 222.458H144.564V233.581H133.443V222.458Z" fill="#FECCCB"/>
<path d="M155.683 200.213H166.804V211.336H155.683V200.213Z" fill="#FECCCB"/>
<path d="M177.926 200.213H189.047V211.336H177.926V200.213Z" fill="#FECCCB"/>
<path d="M155.683 222.458H166.804V233.581H155.683V222.458Z" fill="#FECCCB"/>
<path d="M155.683 244.703H166.804V255.826H155.683V244.703Z" fill="#FECCCB"/>
<path d="M133.443 244.703H144.564V255.826H133.443V244.703Z" fill="#FECCCB"/>
<path d="M177.926 222.458H189.047V233.581H177.926V222.458Z" fill="#FECCCB"/>
<path d="M177.926 244.703H189.047V255.826H177.926V244.703Z" fill="#FECCCB"/>
<path d="M789.557 200.213H778.436V211.336H789.557V200.213Z" fill="#FF9D9B"/>
<path d="M789.557 222.458H778.436V233.581H789.557V222.458Z" fill="#FF9D9B"/>
<path d="M767.317 200.213H756.196V211.336H767.317V200.213Z" fill="#FF9D9B"/>
<path d="M745.074 200.213H733.953V211.336H745.074V200.213Z" fill="#FF9D9B"/>
<path d="M767.317 222.458H756.196V233.581H767.317V222.458Z" fill="#FF9D9B"/>
<path d="M767.317 244.703H756.196V255.826H767.317V244.703Z" fill="#FF9D9B"/>
<path d="M789.557 244.703H778.436V255.826H789.557V244.703Z" fill="#FF9D9B"/>
<path d="M745.074 222.458H733.953V233.581H745.074V222.458Z" fill="#FF9D9B"/>
<path d="M745.074 244.703H733.953V255.826H745.074V244.703Z" fill="#FF9D9B"/>
<path d="M133.443 266.95H144.564V278.073H133.443V266.95Z" fill="#FECCCB"/>
<path d="M133.443 289.195H144.564V300.318H133.443V289.195Z" fill="#FECCCB"/>
<path d="M155.683 266.95H166.804V278.073H155.683V266.95Z" fill="#FECCCB"/>
<path d="M177.926 266.95H189.047V278.073H177.926V266.95Z" fill="#FECCCB"/>
<path d="M155.683 289.195H166.804V300.318H155.683V289.195Z" fill="#FECCCB"/>
<path d="M155.683 311.44H166.804V322.564H155.683V311.44Z" fill="#FECCCB"/>
<path d="M133.443 311.44H144.564V322.564H133.443V311.44Z" fill="#FECCCB"/>
<path d="M177.926 289.195H189.047V300.318H177.926V289.195Z" fill="#FECCCB"/>
<path d="M177.926 311.44H189.047V322.564H177.926V311.44Z" fill="#FECCCB"/>
<path d="M789.557 266.95H778.436V278.073H789.557V266.95Z" fill="#FECCCB"/>
<path d="M789.557 289.195H778.436V300.318H789.557V289.195Z" fill="#FECCCB"/>
<path d="M767.317 266.95H756.196V278.073H767.317V266.95Z" fill="#FECCCB"/>
<path d="M745.074 266.95H733.953V278.073H745.074V266.95Z" fill="#FECCCB"/>
<path d="M767.317 289.195H756.196V300.318H767.317V289.195Z" fill="#FECCCB"/>
<path d="M767.317 311.44H756.196V322.564H767.317V311.44Z" fill="#FECCCB"/>
<path d="M789.557 311.44H778.436V322.564H789.557V311.44Z" fill="#FECCCB"/>
<path d="M745.074 289.195H733.953V300.318H745.074V289.195Z" fill="#FECCCB"/>
<path d="M745.074 311.44H733.953V322.564H745.074V311.44Z" fill="#FECCCB"/>
<path d="M133.443 333.688H144.564V344.811H133.443V333.688Z" fill="#FECCCB"/>
<path d="M133.443 355.933H144.564V367.056H133.443V355.933Z" fill="#FECCCB"/>
<path d="M155.683 333.688H166.804V344.811H155.683V333.688Z" fill="#FECCCB"/>
<path d="M177.926 333.688H189.047V344.811H177.926V333.688Z" fill="#FECCCB"/>
<path d="M155.683 355.933H166.804V367.056H155.683V355.933Z" fill="#FECCCB"/>
<path d="M155.683 378.178H166.804V389.301H155.683V378.178Z" fill="#FECCCB"/>
<path d="M133.443 378.178H144.564V389.301H133.443V378.178Z" fill="#FECCCB"/>
<path d="M177.926 355.933H189.047V367.056H177.926V355.933Z" fill="#FECCCB"/>
<path d="M177.926 378.178H189.047V389.301H177.926V378.178Z" fill="#FECCCB"/>
<path d="M789.557 333.688H778.436V344.811H789.557V333.688Z" fill="#FECCCB"/>
<path d="M789.557 355.933H778.436V367.056H789.557V355.933Z" fill="#FECCCB"/>
<path d="M767.317 333.688H756.196V344.811H767.317V333.688Z" fill="#FECCCB"/>
<path d="M745.074 333.688H733.953V344.811H745.074V333.688Z" fill="#FECCCB"/>
<path d="M767.317 355.933H756.196V367.056H767.317V355.933Z" fill="#FECCCB"/>
<path d="M767.317 378.178H756.196V389.301H767.317V378.178Z" fill="#FECCCB"/>
<path d="M789.557 378.178H778.436V389.301H789.557V378.178Z" fill="#FECCCB"/>
<path d="M745.074 355.933H733.953V367.056H745.074V355.933Z" fill="#FECCCB"/>
<path d="M745.074 378.178H733.953V389.301H745.074V378.178Z" fill="#FECCCB"/>
<path d="M133.443 400.436H144.564V411.56H133.443V400.436Z" fill="#FECCCB"/>
<path d="M133.443 422.682H144.564V433.805H133.443V422.682Z" fill="#FECCCB"/>
<path d="M155.683 400.436H166.804V411.56H155.683V400.436Z" fill="#FECCCB"/>
<path d="M177.926 400.436H189.047V411.56H177.926V400.436Z" fill="#FECCCB"/>
<path d="M155.683 422.682H166.804V433.805H155.683V422.682Z" fill="#FECCCB"/>
<path d="M155.683 444.927H166.804V456.05H155.683V444.927Z" fill="#FECCCB"/>
<path d="M133.443 444.927H144.564V456.05H133.443V444.927Z" fill="#FECCCB"/>
<path d="M177.926 422.682H189.047V433.805H177.926V422.682Z" fill="#FECCCB"/>
<path d="M177.926 444.927H189.047V456.05H177.926V444.927Z" fill="#FECCCB"/>
<path d="M789.557 400.436H778.436V411.56H789.557V400.436Z" fill="#FECCCB"/>
<path d="M789.557 422.682H778.436V433.805H789.557V422.682Z" fill="#FECCCB"/>
<path d="M767.317 400.436H756.196V411.56H767.317V400.436Z" fill="#FECCCB"/>
<path d="M745.074 400.436H733.953V411.56H745.074V400.436Z" fill="#FECCCB"/>
<path d="M767.317 422.682H756.196V433.805H767.317V422.682Z" fill="#FECCCB"/>
<path d="M767.317 444.927H756.196V456.05H767.317V444.927Z" fill="#FECCCB"/>
<path d="M789.557 444.927H778.436V456.05H789.557V444.927Z" fill="#FECCCB"/>
<path d="M745.074 422.682H733.953V433.805H745.074V422.682Z" fill="#FECCCB"/>
<path d="M745.074 444.927H733.953V456.05H745.074V444.927Z" fill="#FECCCB"/>
<path d="M66.7217 66.7375H77.8422V77.8606H66.7217V66.7375Z" fill="#FECCCB"/>
<path d="M66.7217 88.9827H77.8422V100.106H66.7217V88.9827Z" fill="#FECCCB"/>
<path d="M88.9616 66.7375H100.082V77.8606H88.9616V66.7375Z" fill="#FECCCB"/>
<path d="M111.205 66.7375H122.325V77.8606H111.205V66.7375Z" fill="#FECCCB"/>
<path d="M88.9616 88.9827H100.082V100.106H88.9616V88.9827Z" fill="#FECCCB"/>
<path d="M88.9616 111.228H100.082V122.351H88.9616V111.228Z" fill="#FECCCB"/>
<path d="M66.7217 111.228H77.8422V122.351H66.7217V111.228Z" fill="#FECCCB"/>
<path d="M111.205 88.9827H122.325V100.106H111.205V88.9827Z" fill="#FECCCB"/>
<path d="M111.205 111.228H122.325V122.351H111.205V111.228Z" fill="#FECCCB"/>
<path d="M856.278 66.7375H845.158V77.8606H856.278V66.7375Z" fill="#FECCCB"/>
<path d="M856.278 88.9827H845.158V100.106H856.278V88.9827Z" fill="#FECCCB"/>
<path d="M834.038 66.7375H822.918V77.8606H834.038V66.7375Z" fill="#FECCCB"/>
<path d="M811.795 66.7375H800.675V77.8606H811.795V66.7375Z" fill="#FECCCB"/>
<path d="M834.038 88.9827H822.918V100.106H834.038V88.9827Z" fill="#FECCCB"/>
<path d="M834.038 111.228H822.918V122.351H834.038V111.228Z" fill="#FECCCB"/>
<path d="M856.278 111.228H845.158V122.351H856.278V111.228Z" fill="#FECCCB"/>
<path d="M811.795 88.9827H800.675V100.106H811.795V88.9827Z" fill="#FECCCB"/>
<path d="M811.795 111.228H800.675V122.351H811.795V111.228Z" fill="#FECCCB"/>
<path d="M66.7217 133.475H77.8422V144.598H66.7217V133.475Z" fill="#FECCCB"/>
<path d="M66.7217 155.72H77.8422V166.843H66.7217V155.72Z" fill="#FECCCB"/>
<path d="M88.9616 133.475H100.082V144.598H88.9616V133.475Z" fill="#FECCCB"/>
<path d="M111.205 133.475H122.325V144.598H111.205V133.475Z" fill="#FECCCB"/>
<path d="M88.9616 155.72H100.082V166.843H88.9616V155.72Z" fill="#FECCCB"/>
<path d="M88.9616 177.965H100.082V189.089H88.9616V177.965Z" fill="#FECCCB"/>
<path d="M66.7217 177.965H77.8422V189.089H66.7217V177.965Z" fill="#FECCCB"/>
<path d="M111.205 155.72H122.325V166.843H111.205V155.72Z" fill="#FECCCB"/>
<path d="M111.205 177.965H122.325V189.089H111.205V177.965Z" fill="#FECCCB"/>
<path d="M856.278 133.475H845.158V144.598H856.278V133.475Z" fill="#FECCCB"/>
<path d="M856.278 155.72H845.158V166.843H856.278V155.72Z" fill="#FECCCB"/>
<path d="M834.038 133.475H822.918V144.598H834.038V133.475Z" fill="#FECCCB"/>
<path d="M811.795 133.475H800.675V144.598H811.795V133.475Z" fill="#FECCCB"/>
<path d="M834.038 155.72H822.918V166.843H834.038V155.72Z" fill="#FECCCB"/>
<path d="M834.038 177.965H822.918V189.089H834.038V177.965Z" fill="#FECCCB"/>
<path d="M856.278 177.965H845.158V189.089H856.278V177.965Z" fill="#FECCCB"/>
<path d="M811.795 155.72H800.675V166.843H811.795V155.72Z" fill="#FECCCB"/>
<path d="M811.795 177.965H800.675V189.089H811.795V177.965Z" fill="#FECCCB"/>
<path d="M66.7217 200.213H77.8422V211.336H66.7217V200.213Z" fill="#FF9D9B"/>
<path d="M66.7217 222.458H77.8422V233.581H66.7217V222.458Z" fill="#FF9D9B"/>
<path d="M88.9616 200.213H100.082V211.336H88.9616V200.213Z" fill="#FF9D9B"/>
<path d="M111.205 200.213H122.325V211.336H111.205V200.213Z" fill="#FF9D9B"/>
<path d="M88.9616 222.458H100.082V233.581H88.9616V222.458Z" fill="#FF9D9B"/>
<path d="M88.9616 244.703H100.082V255.826H88.9616V244.703Z" fill="#FF9D9B"/>
<path d="M66.7217 244.703H77.8422V255.826H66.7217V244.703Z" fill="#FF9D9B"/>
<path d="M111.205 222.458H122.325V233.581H111.205V222.458Z" fill="#FF9D9B"/>
<path d="M111.205 244.703H122.325V255.826H111.205V244.703Z" fill="#FF9D9B"/>
<path d="M856.278 200.213H845.158V211.336H856.278V200.213Z" fill="#FECCCB"/>
<path d="M856.278 222.458H845.158V233.581H856.278V222.458Z" fill="#FECCCB"/>
<path d="M834.038 200.213H822.918V211.336H834.038V200.213Z" fill="#FECCCB"/>
<path d="M811.795 200.213H800.675V211.336H811.795V200.213Z" fill="#FECCCB"/>
<path d="M834.038 222.458H822.918V233.581H834.038V222.458Z" fill="#FECCCB"/>
<path d="M834.038 244.703H822.918V255.826H834.038V244.703Z" fill="#FECCCB"/>
<path d="M856.278 244.703H845.158V255.826H856.278V244.703Z" fill="#FECCCB"/>
<path d="M811.795 222.458H800.675V233.581H811.795V222.458Z" fill="#FECCCB"/>
<path d="M811.795 244.703H800.675V255.826H811.795V244.703Z" fill="#FECCCB"/>
<path d="M66.7217 266.95H77.8422V278.073H66.7217V266.95Z" fill="#FECCCB"/>
<path d="M66.7217 289.195H77.8422V300.318H66.7217V289.195Z" fill="#FECCCB"/>
<path d="M88.9616 266.95H100.082V278.073H88.9616V266.95Z" fill="#FECCCB"/>
<path d="M111.205 266.95H122.325V278.073H111.205V266.95Z" fill="#FECCCB"/>
<path d="M88.9616 289.195H100.082V300.318H88.9616V289.195Z" fill="#FECCCB"/>
<path d="M88.9616 311.44H100.082V322.564H88.9616V311.44Z" fill="#FECCCB"/>
<path d="M66.7217 311.44H77.8422V322.564H66.7217V311.44Z" fill="#FECCCB"/>
<path d="M111.205 289.195H122.325V300.318H111.205V289.195Z" fill="#FECCCB"/>
<path d="M111.205 311.44H122.325V322.564H111.205V311.44Z" fill="#FECCCB"/>
<path d="M856.278 266.95H845.158V278.073H856.278V266.95Z" fill="#FF9D9B"/>
<path d="M856.278 289.195H845.158V300.318H856.278V289.195Z" fill="#FF9D9B"/>
<path d="M834.038 266.95H822.918V278.073H834.038V266.95Z" fill="#FF9D9B"/>
<path d="M811.795 266.95H800.675V278.073H811.795V266.95Z" fill="#FF9D9B"/>
<path d="M834.038 289.195H822.918V300.318H834.038V289.195Z" fill="#FF9D9B"/>
<path d="M834.038 311.44H822.918V322.564H834.038V311.44Z" fill="#FF9D9B"/>
<path d="M856.278 311.44H845.158V322.564H856.278V311.44Z" fill="#FF9D9B"/>
<path d="M811.795 289.195H800.675V300.318H811.795V289.195Z" fill="#FF9D9B"/>
<path d="M811.795 311.44H800.675V322.564H811.795V311.44Z" fill="#FF9D9B"/>
<path d="M66.7217 333.688H77.8422V344.811H66.7217V333.688Z" fill="#FECCCB"/>
<path d="M66.7217 355.933H77.8422V367.056H66.7217V355.933Z" fill="#FECCCB"/>
<path d="M88.9616 333.688H100.082V344.811H88.9616V333.688Z" fill="#FECCCB"/>
<path d="M111.205 333.688H122.325V344.811H111.205V333.688Z" fill="#FECCCB"/>
<path d="M88.9616 355.933H100.082V367.056H88.9616V355.933Z" fill="#FECCCB"/>
<path d="M88.9616 378.178H100.082V389.301H88.9616V378.178Z" fill="#FECCCB"/>
<path d="M66.7217 378.178H77.8422V389.301H66.7217V378.178Z" fill="#FECCCB"/>
<path d="M111.205 355.933H122.325V367.056H111.205V355.933Z" fill="#FECCCB"/>
<path d="M111.205 378.178H122.325V389.301H111.205V378.178Z" fill="#FECCCB"/>
<path d="M856.278 333.688H845.158V344.811H856.278V333.688Z" fill="#FECCCB"/>
<path d="M856.278 355.933H845.158V367.056H856.278V355.933Z" fill="#FECCCB"/>
<path d="M834.038 333.688H822.918V344.811H834.038V333.688Z" fill="#FECCCB"/>
<path d="M811.795 333.688H800.675V344.811H811.795V333.688Z" fill="#FECCCB"/>
<path d="M834.038 355.933H822.918V367.056H834.038V355.933Z" fill="#FECCCB"/>
<path d="M834.038 378.178H822.918V389.301H834.038V378.178Z" fill="#FECCCB"/>
<path d="M856.278 378.178H845.158V389.301H856.278V378.178Z" fill="#FECCCB"/>
<path d="M811.795 355.933H800.675V367.056H811.795V355.933Z" fill="#FECCCB"/>
<path d="M811.795 378.178H800.675V389.301H811.795V378.178Z" fill="#FECCCB"/>
<path d="M0 133.475H11.1205V144.598H0V133.475Z" fill="#FECCCB"/>
<path d="M0 155.72H11.1205V166.843H0V155.72Z" fill="#FECCCB"/>
<path d="M22.2399 133.475H33.3604V144.598H22.2399V133.475Z" fill="#FECCCB"/>
<path d="M44.4829 133.475H55.6034V144.598H44.4829V133.475Z" fill="#FECCCB"/>
<path d="M22.2399 155.72H33.3604V166.843H22.2399V155.72Z" fill="#FECCCB"/>
<path d="M22.2399 177.965H33.3604V189.089H22.2399V177.965Z" fill="#FECCCB"/>
<path d="M0 177.965H11.1205V189.089H0V177.965Z" fill="#FECCCB"/>
<path d="M44.4829 155.72H55.6034V166.843H44.4829V155.72Z" fill="#FECCCB"/>
<path d="M44.4829 177.965H55.6034V189.089H44.4829V177.965Z" fill="#FECCCB"/>
<path d="M923 133.475H911.88V144.598H923V133.475Z" fill="#FECCCB"/>
<path d="M923 155.72H911.88V166.843H923V155.72Z" fill="#FECCCB"/>
<path d="M900.76 133.475H889.64V144.598H900.76V133.475Z" fill="#FECCCB"/>
<path d="M878.517 133.475H867.397V144.598H878.517V133.475Z" fill="#FECCCB"/>
<path d="M900.76 155.72H889.64V166.843H900.76V155.72Z" fill="#FECCCB"/>
<path d="M900.76 177.965H889.64V189.089H900.76V177.965Z" fill="#FECCCB"/>
<path d="M923 177.965H911.88V189.089H923V177.965Z" fill="#FECCCB"/>
<path d="M878.517 155.72H867.397V166.843H878.517V155.72Z" fill="#FECCCB"/>
<path d="M878.517 177.965H867.397V189.089H878.517V177.965Z" fill="#FECCCB"/>
<path d="M0 200.215H11.1205V211.338H0V200.215Z" fill="#FECCCB"/>
<path d="M0 222.458H11.1205V233.581H0V222.458Z" fill="#FECCCB"/>
<path d="M22.2399 200.213H33.3604V211.336H22.2399V200.213Z" fill="#FECCCB"/>
<path d="M44.4829 200.213H55.6034V211.336H44.4829V200.213Z" fill="#FECCCB"/>
<path d="M22.2399 222.458H33.3604V233.581H22.2399V222.458Z" fill="#FECCCB"/>
<path d="M22.2399 244.703H33.3604V255.826H22.2399V244.703Z" fill="#FECCCB"/>
<path d="M0 244.703H11.1205V255.826H0V244.703Z" fill="#FECCCB"/>
<path d="M44.4829 222.458H55.6034V233.581H44.4829V222.458Z" fill="#FECCCB"/>
<path d="M44.4829 244.703H55.6034V255.826H44.4829V244.703Z" fill="#FECCCB"/>
<path d="M923 200.215H911.88V211.338H923V200.215Z" fill="#FECCCB"/>
<path d="M923 222.458H911.88V233.581H923V222.458Z" fill="#FECCCB"/>
<path d="M900.76 200.213H889.64V211.336H900.76V200.213Z" fill="#FECCCB"/>
<path d="M878.517 200.213H867.397V211.336H878.517V200.213Z" fill="#FECCCB"/>
<path d="M900.76 222.458H889.64V233.581H900.76V222.458Z" fill="#FECCCB"/>
<path d="M900.76 244.703H889.64V255.826H900.76V244.703Z" fill="#FECCCB"/>
<path d="M923 244.703H911.88V255.826H923V244.703Z" fill="#FECCCB"/>
<path d="M878.517 222.458H867.397V233.581H878.517V222.458Z" fill="#FECCCB"/>
<path d="M878.517 244.703H867.397V255.826H878.517V244.703Z" fill="#FECCCB"/>
<path d="M0 266.95H11.1205V278.073H0V266.95Z" fill="#FF9D9B"/>
<path d="M0 289.195H11.1205V300.318H0V289.195Z" fill="#FF9D9B"/>
<path d="M22.2399 266.95H33.3604V278.073H22.2399V266.95Z" fill="#FF9D9B"/>
<path d="M44.4829 266.95H55.6034V278.073H44.4829V266.95Z" fill="#FF9D9B"/>
<path d="M22.2399 289.195H33.3604V300.318H22.2399V289.195Z" fill="#FF9D9B"/>
<path d="M22.2399 311.44H33.3604V322.564H22.2399V311.44Z" fill="#FF9D9B"/>
<path d="M0 311.44H11.1205V322.564H0V311.44Z" fill="#FF9D9B"/>
<path d="M44.4829 289.195H55.6034V300.318H44.4829V289.195Z" fill="#FF9D9B"/>
<path d="M44.4829 311.44H55.6034V322.564H44.4829V311.44Z" fill="#FF9D9B"/>
<path d="M923 266.95H911.88V278.073H923V266.95Z" fill="#FECCCB"/>
<path d="M923 289.195H911.88V300.318H923V289.195Z" fill="#FECCCB"/>
<path d="M900.76 266.95H889.64V278.073H900.76V266.95Z" fill="#FECCCB"/>
<path d="M878.517 266.95H867.397V278.073H878.517V266.95Z" fill="#FECCCB"/>
<path d="M900.76 289.195H889.64V300.318H900.76V289.195Z" fill="#FECCCB"/>
<path d="M900.76 311.44H889.64V322.564H900.76V311.44Z" fill="#FECCCB"/>
<path d="M923 311.44H911.88V322.564H923V311.44Z" fill="#FECCCB"/>
<path d="M878.517 289.195H867.397V300.318H878.517V289.195Z" fill="#FECCCB"/>
<path d="M878.517 311.44H867.397V322.564H878.517V311.44Z" fill="#FECCCB"/>
<path d="M200.165 0H211.286V11.1231H200.165V0Z" fill="#FECCCB"/>
<path d="M200.165 22.2452H211.286V33.3683H200.165V22.2452Z" fill="#FECCCB"/>
<path d="M222.405 0H233.526V11.1231H222.405V0Z" fill="#FECCCB"/>
<path d="M244.648 0H255.769V11.1231H244.648V0Z" fill="#FECCCB"/>
<path d="M222.405 22.2452H233.526V33.3683H222.405V22.2452Z" fill="#FECCCB"/>
<path d="M222.405 44.4904H233.526V55.6135H222.405V44.4904Z" fill="#FECCCB"/>
<path d="M200.165 44.4904H211.286V55.6135H200.165V44.4904Z" fill="#FECCCB"/>
<path d="M244.648 22.2452H255.769V33.3683H244.648V22.2452Z" fill="#FECCCB"/>
<path d="M244.648 44.4904H255.769V55.6135H244.648V44.4904Z" fill="#FECCCB"/>
<path d="M722.835 0H711.714V11.1231H722.835V0Z" fill="#FF9D9B"/>
<path d="M722.835 22.2452H711.714V33.3683H722.835V22.2452Z" fill="#FF9D9B"/>
<path d="M700.595 0H689.474V11.1231H700.595V0Z" fill="#FF9D9B"/>
<path d="M678.352 0H667.231V11.1231H678.352V0Z" fill="#FF9D9B"/>
<path d="M700.595 22.2452H689.474V33.3683H700.595V22.2452Z" fill="#FF9D9B"/>
<path d="M700.595 44.4904H689.474V55.6135H700.595V44.4904Z" fill="#FF9D9B"/>
<path d="M722.835 44.4904H711.714V55.6135H722.835V44.4904Z" fill="#FF9D9B"/>
<path d="M678.352 22.2452H667.231V33.3683H678.352V22.2452Z" fill="#FF9D9B"/>
<path d="M678.352 44.4904H667.231V55.6135H678.352V44.4904Z" fill="#FF9D9B"/>
<path d="M200.165 66.7375H211.286V77.8606H200.165V66.7375Z" fill="#FECCCB"/>
<path d="M200.165 88.9827H211.286V100.106H200.165V88.9827Z" fill="#FECCCB"/>
<path d="M222.405 66.7375H233.526V77.8606H222.405V66.7375Z" fill="#FECCCB"/>
<path d="M244.648 66.7375H255.769V77.8606H244.648V66.7375Z" fill="#FECCCB"/>
<path d="M222.405 88.9827H233.526V100.106H222.405V88.9827Z" fill="#FECCCB"/>
<path d="M222.405 111.228H233.526V122.351H222.405V111.228Z" fill="#FECCCB"/>
<path d="M200.165 111.228H211.286V122.351H200.165V111.228Z" fill="#FECCCB"/>
<path d="M244.648 88.9827H255.769V100.106H244.648V88.9827Z" fill="#FECCCB"/>
<path d="M244.648 111.228H255.769V122.351H244.648V111.228Z" fill="#FECCCB"/>
<path d="M722.835 66.7375H711.714V77.8606H722.835V66.7375Z" fill="#FECCCB"/>
<path d="M722.835 88.9827H711.714V100.106H722.835V88.9827Z" fill="#FECCCB"/>
<path d="M700.595 66.7375H689.474V77.8606H700.595V66.7375Z" fill="#FECCCB"/>
<path d="M678.352 66.7375H667.231V77.8606H678.352V66.7375Z" fill="#FECCCB"/>
<path d="M700.595 88.9827H689.474V100.106H700.595V88.9827Z" fill="#FECCCB"/>
<path d="M700.595 111.228H689.474V122.351H700.595V111.228Z" fill="#FECCCB"/>
<path d="M722.835 111.228H711.714V122.351H722.835V111.228Z" fill="#FECCCB"/>
<path d="M678.352 88.9827H667.231V100.106H678.352V88.9827Z" fill="#FECCCB"/>
<path d="M678.352 111.228H667.231V122.351H678.352V111.228Z" fill="#FECCCB"/>
<path d="M200.164 133.475H211.284V144.598H200.164V133.475Z" fill="#FECCCB"/>
<path d="M200.165 155.72H211.286V166.843H200.165V155.72Z" fill="#FECCCB"/>
<path d="M222.405 133.475H233.526V144.598H222.405V133.475Z" fill="#FECCCB"/>
<path d="M244.648 133.475H255.769V144.598H244.648V133.475Z" fill="#FECCCB"/>
<path d="M222.405 155.72H233.526V166.843H222.405V155.72Z" fill="#FECCCB"/>
<path d="M222.405 177.965H233.526V189.089H222.405V177.965Z" fill="#FECCCB"/>
<path d="M200.165 177.965H211.286V189.089H200.165V177.965Z" fill="#FECCCB"/>
<path d="M244.648 155.72H255.769V166.843H244.648V155.72Z" fill="#FECCCB"/>
<path d="M244.648 177.965H255.769V189.089H244.648V177.965Z" fill="#FECCCB"/>
<path d="M722.836 133.475H711.716V144.598H722.836V133.475Z" fill="#FECCCB"/>
<path d="M722.835 155.72H711.714V166.843H722.835V155.72Z" fill="#FECCCB"/>
<path d="M700.595 133.475H689.474V144.598H700.595V133.475Z" fill="#FECCCB"/>
<path d="M678.352 133.475H667.231V144.598H678.352V133.475Z" fill="#FECCCB"/>
<path d="M700.595 155.72H689.474V166.843H700.595V155.72Z" fill="#FECCCB"/>
<path d="M700.595 177.965H689.474V189.089H700.595V177.965Z" fill="#FECCCB"/>
<path d="M722.835 177.965H711.714V189.089H722.835V177.965Z" fill="#FECCCB"/>
<path d="M678.352 155.72H667.231V166.843H678.352V155.72Z" fill="#FECCCB"/>
<path d="M678.352 177.965H667.231V189.089H678.352V177.965Z" fill="#FECCCB"/>
<path d="M200.165 200.213H211.286V211.336H200.165V200.213Z" fill="#FF9D9B"/>
<path d="M200.165 222.458H211.286V233.581H200.165V222.458Z" fill="#FF9D9B"/>
<path d="M222.405 200.213H233.526V211.336H222.405V200.213Z" fill="#FF9D9B"/>
<path d="M244.648 200.213H255.769V211.336H244.648V200.213Z" fill="#FF9D9B"/>
<path d="M222.405 222.458H233.526V233.581H222.405V222.458Z" fill="#FF9D9B"/>
<path d="M222.405 244.703H233.526V255.826H222.405V244.703Z" fill="#FF9D9B"/>
<path d="M200.165 244.703H211.286V255.826H200.165V244.703Z" fill="#FF9D9B"/>
<path d="M244.648 222.458H255.769V233.581H244.648V222.458Z" fill="#FF9D9B"/>
<path d="M244.648 244.703H255.769V255.826H244.648V244.703Z" fill="#FF9D9B"/>
<path d="M722.835 200.213H711.714V211.336H722.835V200.213Z" fill="#FF9D9B"/>
<path d="M722.835 222.458H711.714V233.581H722.835V222.458Z" fill="#FF9D9B"/>
<path d="M700.595 200.213H689.474V211.336H700.595V200.213Z" fill="#FF9D9B"/>
<path d="M678.352 200.213H667.231V211.336H678.352V200.213Z" fill="#FF9D9B"/>
<path d="M700.595 222.458H689.474V233.581H700.595V222.458Z" fill="#FF9D9B"/>
<path d="M700.595 244.703H689.474V255.826H700.595V244.703Z" fill="#FF9D9B"/>
<path d="M722.835 244.703H711.714V255.826H722.835V244.703Z" fill="#FF9D9B"/>
<path d="M678.352 222.458H667.231V233.581H678.352V222.458Z" fill="#FF9D9B"/>
<path d="M678.352 244.703H667.231V255.826H678.352V244.703Z" fill="#FF9D9B"/>
<path d="M200.165 266.95H211.286V278.073H200.165V266.95Z" fill="#FF9D9B"/>
<path d="M200.165 289.195H211.286V300.318H200.165V289.195Z" fill="#FF9D9B"/>
<path d="M222.405 266.95H233.526V278.073H222.405V266.95Z" fill="#FF9D9B"/>
<path d="M244.648 266.95H255.769V278.073H244.648V266.95Z" fill="#FF9D9B"/>
<path d="M222.405 289.195H233.526V300.318H222.405V289.195Z" fill="#FF9D9B"/>
<path d="M222.405 311.44H233.526V322.564H222.405V311.44Z" fill="#FF9D9B"/>
<path d="M200.165 311.44H211.286V322.564H200.165V311.44Z" fill="#FF9D9B"/>
<path d="M244.648 289.195H255.769V300.318H244.648V289.195Z" fill="#FF9D9B"/>
<path d="M244.648 311.44H255.769V322.564H244.648V311.44Z" fill="#FF9D9B"/>
<path d="M722.835 266.95H711.714V278.073H722.835V266.95Z" fill="#FECCCB"/>
<path d="M722.835 289.195H711.714V300.318H722.835V289.195Z" fill="#FECCCB"/>
<path d="M700.595 266.95H689.474V278.073H700.595V266.95Z" fill="#FECCCB"/>
<path d="M678.352 266.95H667.231V278.073H678.352V266.95Z" fill="#FECCCB"/>
<path d="M700.595 289.195H689.474V300.318H700.595V289.195Z" fill="#FECCCB"/>
<path d="M700.595 311.44H689.474V322.564H700.595V311.44Z" fill="#FECCCB"/>
<path d="M722.835 311.44H711.714V322.564H722.835V311.44Z" fill="#FECCCB"/>
<path d="M678.352 289.195H667.231V300.318H678.352V289.195Z" fill="#FECCCB"/>
<path d="M678.352 311.44H667.231V322.564H678.352V311.44Z" fill="#FECCCB"/>
<path d="M200.165 333.688H211.286V344.811H200.165V333.688Z" fill="#FECCCB"/>
<path d="M200.165 355.933H211.286V367.056H200.165V355.933Z" fill="#FECCCB"/>
<path d="M222.405 333.688H233.526V344.811H222.405V333.688Z" fill="#FECCCB"/>
<path d="M244.648 333.688H255.769V344.811H244.648V333.688Z" fill="#FECCCB"/>
<path d="M222.405 355.933H233.526V367.056H222.405V355.933Z" fill="#FECCCB"/>
<path d="M222.405 378.178H233.526V389.301H222.405V378.178Z" fill="#FECCCB"/>
<path d="M200.165 378.178H211.286V389.301H200.165V378.178Z" fill="#FECCCB"/>
<path d="M244.648 355.933H255.769V367.056H244.648V355.933Z" fill="#FECCCB"/>
<path d="M244.648 378.178H255.769V389.301H244.648V378.178Z" fill="#FECCCB"/>
<path d="M722.835 333.688H711.714V344.811H722.835V333.688Z" fill="#FECCCB"/>
<path d="M722.835 355.933H711.714V367.056H722.835V355.933Z" fill="#FECCCB"/>
<path d="M700.595 333.688H689.474V344.811H700.595V333.688Z" fill="#FECCCB"/>
<path d="M678.352 333.688H667.231V344.811H678.352V333.688Z" fill="#FECCCB"/>
<path d="M700.595 355.933H689.474V367.056H700.595V355.933Z" fill="#FECCCB"/>
<path d="M700.595 378.178H689.474V389.301H700.595V378.178Z" fill="#FECCCB"/>
<path d="M722.835 378.178H711.714V389.301H722.835V378.178Z" fill="#FECCCB"/>
<path d="M678.352 355.933H667.231V367.056H678.352V355.933Z" fill="#FECCCB"/>
<path d="M678.352 378.178H667.231V389.301H678.352V378.178Z" fill="#FECCCB"/>
<path d="M200.165 400.436H211.286V411.56H200.165V400.436Z" fill="#FECCCB"/>
<path d="M200.165 422.682H211.286V433.805H200.165V422.682Z" fill="#FECCCB"/>
<path d="M222.405 400.436H233.526V411.56H222.405V400.436Z" fill="#FECCCB"/>
<path d="M244.648 400.436H255.769V411.56H244.648V400.436Z" fill="#FECCCB"/>
<path d="M222.405 422.682H233.526V433.805H222.405V422.682Z" fill="#FECCCB"/>
<path d="M222.405 444.927H233.526V456.05H222.405V444.927Z" fill="#FECCCB"/>
<path d="M200.165 444.927H211.286V456.05H200.165V444.927Z" fill="#FECCCB"/>
<path d="M244.648 422.682H255.769V433.805H244.648V422.682Z" fill="#FECCCB"/>
<path d="M244.648 444.927H255.769V456.05H244.648V444.927Z" fill="#FECCCB"/>
<path d="M722.835 400.436H711.714V411.56H722.835V400.436Z" fill="#FECCCB"/>
<path d="M722.835 422.682H711.714V433.805H722.835V422.682Z" fill="#FECCCB"/>
<path d="M700.595 400.436H689.474V411.56H700.595V400.436Z" fill="#FECCCB"/>
<path d="M678.352 400.436H667.231V411.56H678.352V400.436Z" fill="#FECCCB"/>
<path d="M700.595 422.682H689.474V433.805H700.595V422.682Z" fill="#FECCCB"/>
<path d="M700.595 444.927H689.474V456.05H700.595V444.927Z" fill="#FECCCB"/>
<path d="M722.835 444.927H711.714V456.05H722.835V444.927Z" fill="#FECCCB"/>
<path d="M678.352 422.682H667.231V433.805H678.352V422.682Z" fill="#FECCCB"/>
<path d="M678.352 444.927H667.231V456.05H678.352V444.927Z" fill="#FECCCB"/>
<path d="M200.165 467.174H211.286V478.297H200.165V467.174Z" fill="#FECCCB"/>
<path d="M200.165 489.419H211.286V500.542H200.165V489.419Z" fill="#FECCCB"/>
<path d="M222.405 467.174H233.526V478.297H222.405V467.174Z" fill="#FECCCB"/>
<path d="M244.648 467.174H255.769V478.297H244.648V467.174Z" fill="#FECCCB"/>
<path d="M222.405 489.419H233.526V500.542H222.405V489.419Z" fill="#FECCCB"/>
<path d="M222.405 511.664H233.526V522.788H222.405V511.664Z" fill="#FECCCB"/>
<path d="M200.165 511.664H211.286V522.788H200.165V511.664Z" fill="#FECCCB"/>
<path d="M244.648 489.419H255.769V500.542H244.648V489.419Z" fill="#FECCCB"/>
<path d="M244.648 511.664H255.769V522.788H244.648V511.664Z" fill="#FECCCB"/>
<path d="M722.835 467.174H711.714V478.297H722.835V467.174Z" fill="#FF9D9B"/>
<path d="M722.835 489.419H711.714V500.542H722.835V489.419Z" fill="#FF9D9B"/>
<path d="M700.595 467.174H689.474V478.297H700.595V467.174Z" fill="#FF9D9B"/>
<path d="M678.352 467.174H667.231V478.297H678.352V467.174Z" fill="#FF9D9B"/>
<path d="M700.595 489.419H689.474V500.542H700.595V489.419Z" fill="#FF9D9B"/>
<path d="M700.595 511.664H689.474V522.788H700.595V511.664Z" fill="#FF9D9B"/>
<path d="M722.835 511.664H711.714V522.788H722.835V511.664Z" fill="#FF9D9B"/>
<path d="M678.352 489.419H667.231V500.542H678.352V489.419Z" fill="#FF9D9B"/>
<path d="M678.352 511.664H667.231V522.788H678.352V511.664Z" fill="#FF9D9B"/>
<path d="M266.887 0H278.007V11.1231H266.887V0Z" fill="#FECCCB"/>
<path d="M266.887 22.2452H278.007V33.3683H266.887V22.2452Z" fill="#FECCCB"/>
<path d="M289.127 0H300.247V11.1231H289.127V0Z" fill="#FECCCB"/>
<path d="M311.37 0H322.49V11.1231H311.37V0Z" fill="#FECCCB"/>
<path d="M289.127 22.2452H300.247V33.3683H289.127V22.2452Z" fill="#FECCCB"/>
<path d="M289.127 44.4904H300.247V55.6135H289.127V44.4904Z" fill="#FECCCB"/>
<path d="M266.887 44.4904H278.007V55.6135H266.887V44.4904Z" fill="#FECCCB"/>
<path d="M311.37 22.2452H322.49V33.3683H311.37V22.2452Z" fill="#FECCCB"/>
<path d="M311.37 44.4904H322.49V55.6135H311.37V44.4904Z" fill="#FECCCB"/>
<path d="M656.113 0H644.993V11.1231H656.113V0Z" fill="#FECCCB"/>
<path d="M656.113 22.2452H644.993V33.3683H656.113V22.2452Z" fill="#FECCCB"/>
<path d="M633.873 0H622.753V11.1231H633.873V0Z" fill="#FECCCB"/>
<path d="M611.63 0H600.51V11.1231H611.63V0Z" fill="#FECCCB"/>
<path d="M633.873 22.2452H622.753V33.3683H633.873V22.2452Z" fill="#FECCCB"/>
<path d="M633.873 44.4904H622.753V55.6135H633.873V44.4904Z" fill="#FECCCB"/>
<path d="M656.113 44.4904H644.993V55.6135H656.113V44.4904Z" fill="#FECCCB"/>
<path d="M611.63 22.2452H600.51V33.3683H611.63V22.2452Z" fill="#FECCCB"/>
<path d="M611.63 44.4904H600.51V55.6135H611.63V44.4904Z" fill="#FECCCB"/>
<path d="M266.887 66.7375H278.007V77.8606H266.887V66.7375Z" fill="#FECCCB"/>
<path d="M266.887 88.9827H278.007V100.106H266.887V88.9827Z" fill="#FECCCB"/>
<path d="M289.127 66.7375H300.247V77.8606H289.127V66.7375Z" fill="#FECCCB"/>
<path d="M311.37 66.7375H322.49V77.8606H311.37V66.7375Z" fill="#FECCCB"/>
<path d="M289.127 88.9827H300.247V100.106H289.127V88.9827Z" fill="#FECCCB"/>
<path d="M289.127 111.228H300.247V122.351H289.127V111.228Z" fill="#FECCCB"/>
<path d="M266.887 111.228H278.007V122.351H266.887V111.228Z" fill="#FECCCB"/>
<path d="M311.37 88.9827H322.49V100.106H311.37V88.9827Z" fill="#FECCCB"/>
<path d="M311.37 111.228H322.49V122.351H311.37V111.228Z" fill="#FECCCB"/>
<path d="M656.113 66.7375H644.993V77.8606H656.113V66.7375Z" fill="#FECCCB"/>
<path d="M656.113 88.9827H644.993V100.106H656.113V88.9827Z" fill="#FECCCB"/>
<path d="M633.873 66.7375H622.753V77.8606H633.873V66.7375Z" fill="#FECCCB"/>
<path d="M611.63 66.7375H600.51V77.8606H611.63V66.7375Z" fill="#FECCCB"/>
<path d="M633.873 88.9827H622.753V100.106H633.873V88.9827Z" fill="#FECCCB"/>
<path d="M633.873 111.228H622.753V122.351H633.873V111.228Z" fill="#FECCCB"/>
<path d="M656.113 111.228H644.993V122.351H656.113V111.228Z" fill="#FECCCB"/>
<path d="M611.63 88.9827H600.51V100.106H611.63V88.9827Z" fill="#FECCCB"/>
<path d="M611.63 111.228H600.51V122.351H611.63V111.228Z" fill="#FECCCB"/>
<path d="M266.889 133.475H278.009V144.598H266.889V133.475Z" fill="#FECCCB"/>
<path d="M266.887 155.72H278.007V166.843H266.887V155.72Z" fill="#FECCCB"/>
<path d="M289.127 133.475H300.247V144.598H289.127V133.475Z" fill="#FECCCB"/>
<path d="M311.37 133.475H322.49V144.598H311.37V133.475Z" fill="#FECCCB"/>
<path d="M289.127 155.72H300.247V166.843H289.127V155.72Z" fill="#FECCCB"/>
<path d="M289.127 177.965H300.247V189.089H289.127V177.965Z" fill="#FECCCB"/>
<path d="M266.887 177.965H278.007V189.089H266.887V177.965Z" fill="#FECCCB"/>
<path d="M311.37 155.72H322.49V166.843H311.37V155.72Z" fill="#FECCCB"/>
<path d="M311.37 177.965H322.49V189.089H311.37V177.965Z" fill="#FECCCB"/>
<path d="M656.111 133.475H644.991V144.598H656.111V133.475Z" fill="#FECCCB"/>
<path d="M656.113 155.72H644.993V166.843H656.113V155.72Z" fill="#FECCCB"/>
<path d="M633.873 133.475H622.753V144.598H633.873V133.475Z" fill="#FECCCB"/>
<path d="M611.63 133.475H600.51V144.598H611.63V133.475Z" fill="#FECCCB"/>
<path d="M633.873 155.72H622.753V166.843H633.873V155.72Z" fill="#FECCCB"/>
<path d="M633.873 177.965H622.753V189.089H633.873V177.965Z" fill="#FECCCB"/>
<path d="M656.113 177.965H644.993V189.089H656.113V177.965Z" fill="#FECCCB"/>
<path d="M611.63 155.72H600.51V166.843H611.63V155.72Z" fill="#FECCCB"/>
<path d="M611.63 177.965H600.51V189.089H611.63V177.965Z" fill="#FECCCB"/>
<path d="M266.886 200.215H278.006V211.338H266.886V200.215Z" fill="#FECCCB"/>
<path d="M266.887 222.458H278.007V233.581H266.887V222.458Z" fill="#FECCCB"/>
<path d="M289.127 200.213H300.247V211.336H289.127V200.213Z" fill="#FECCCB"/>
<path d="M311.37 200.213H322.49V211.336H311.37V200.213Z" fill="#FECCCB"/>
<path d="M289.127 222.458H300.247V233.581H289.127V222.458Z" fill="#FECCCB"/>
<path d="M289.127 244.703H300.247V255.826H289.127V244.703Z" fill="#FECCCB"/>
<path d="M266.887 244.703H278.007V255.826H266.887V244.703Z" fill="#FECCCB"/>
<path d="M311.37 222.458H322.49V233.581H311.37V222.458Z" fill="#FECCCB"/>
<path d="M311.37 244.703H322.49V255.826H311.37V244.703Z" fill="#FECCCB"/>
<path d="M656.114 200.215H644.994V211.338H656.114V200.215Z" fill="#FECCCB"/>
<path d="M656.113 222.458H644.993V233.581H656.113V222.458Z" fill="#FECCCB"/>
<path d="M633.873 200.213H622.753V211.336H633.873V200.213Z" fill="#FECCCB"/>
<path d="M611.63 200.213H600.51V211.336H611.63V200.213Z" fill="#FECCCB"/>
<path d="M633.873 222.458H622.753V233.581H633.873V222.458Z" fill="#FECCCB"/>
<path d="M633.873 244.703H622.753V255.826H633.873V244.703Z" fill="#FECCCB"/>
<path d="M656.113 244.703H644.993V255.826H656.113V244.703Z" fill="#FECCCB"/>
<path d="M611.63 222.458H600.51V233.581H611.63V222.458Z" fill="#FECCCB"/>
<path d="M611.63 244.703H600.51V255.826H611.63V244.703Z" fill="#FECCCB"/>
<path d="M266.887 266.95H278.007V278.073H266.887V266.95Z" fill="#FECCCB"/>
<path d="M266.887 289.195H278.007V300.318H266.887V289.195Z" fill="#FECCCB"/>
<path d="M289.127 266.95H300.247V278.073H289.127V266.95Z" fill="#FECCCB"/>
<path d="M311.37 266.95H322.49V278.073H311.37V266.95Z" fill="#FECCCB"/>
<path d="M289.127 289.195H300.247V300.318H289.127V289.195Z" fill="#FECCCB"/>
<path d="M289.127 311.44H300.247V322.564H289.127V311.44Z" fill="#FECCCB"/>
<path d="M266.887 311.44H278.007V322.564H266.887V311.44Z" fill="#FECCCB"/>
<path d="M311.37 289.195H322.49V300.318H311.37V289.195Z" fill="#FECCCB"/>
<path d="M311.37 311.44H322.49V322.564H311.37V311.44Z" fill="#FECCCB"/>
<path d="M656.113 266.95H644.993V278.073H656.113V266.95Z" fill="#FECCCB"/>
<path d="M656.113 289.195H644.993V300.318H656.113V289.195Z" fill="#FECCCB"/>
<path d="M633.873 266.95H622.753V278.073H633.873V266.95Z" fill="#FECCCB"/>
<path d="M611.63 266.95H600.51V278.073H611.63V266.95Z" fill="#FECCCB"/>
<path d="M633.873 289.195H622.753V300.318H633.873V289.195Z" fill="#FECCCB"/>
<path d="M633.873 311.44H622.753V322.564H633.873V311.44Z" fill="#FECCCB"/>
<path d="M656.113 311.44H644.993V322.564H656.113V311.44Z" fill="#FECCCB"/>
<path d="M611.63 289.195H600.51V300.318H611.63V289.195Z" fill="#FECCCB"/>
<path d="M611.63 311.44H600.51V322.564H611.63V311.44Z" fill="#FECCCB"/>
<path d="M266.887 333.688H278.007V344.811H266.887V333.688Z" fill="#FECCCB"/>
<path d="M266.887 355.933H278.007V367.056H266.887V355.933Z" fill="#FECCCB"/>
<path d="M289.127 333.688H300.247V344.811H289.127V333.688Z" fill="#FECCCB"/>
<path d="M311.37 333.688H322.49V344.811H311.37V333.688Z" fill="#FECCCB"/>
<path d="M289.127 355.933H300.247V367.056H289.127V355.933Z" fill="#FECCCB"/>
<path d="M289.127 378.178H300.247V389.301H289.127V378.178Z" fill="#FECCCB"/>
<path d="M266.887 378.178H278.007V389.301H266.887V378.178Z" fill="#FECCCB"/>
<path d="M311.37 355.933H322.49V367.056H311.37V355.933Z" fill="#FECCCB"/>
<path d="M311.37 378.178H322.49V389.301H311.37V378.178Z" fill="#FECCCB"/>
<path d="M656.113 333.688H644.993V344.811H656.113V333.688Z" fill="#FECCCB"/>
<path d="M656.113 355.933H644.993V367.056H656.113V355.933Z" fill="#FECCCB"/>
<path d="M633.873 333.688H622.753V344.811H633.873V333.688Z" fill="#FECCCB"/>
<path d="M611.63 333.688H600.51V344.811H611.63V333.688Z" fill="#FECCCB"/>
<path d="M633.873 355.933H622.753V367.056H633.873V355.933Z" fill="#FECCCB"/>
<path d="M633.873 378.178H622.753V389.301H633.873V378.178Z" fill="#FECCCB"/>
<path d="M656.113 378.178H644.993V389.301H656.113V378.178Z" fill="#FECCCB"/>
<path d="M611.63 355.933H600.51V367.056H611.63V355.933Z" fill="#FECCCB"/>
<path d="M611.63 378.178H600.51V389.301H611.63V378.178Z" fill="#FECCCB"/>
<path d="M266.887 400.436H278.007V411.56H266.887V400.436Z" fill="#FECCCB"/>
<path d="M266.887 422.682H278.007V433.805H266.887V422.682Z" fill="#FECCCB"/>
<path d="M289.127 400.436H300.247V411.56H289.127V400.436Z" fill="#FECCCB"/>
<path d="M311.37 400.436H322.49V411.56H311.37V400.436Z" fill="#FECCCB"/>
<path d="M289.127 422.682H300.247V433.805H289.127V422.682Z" fill="#FECCCB"/>
<path d="M289.127 444.927H300.247V456.05H289.127V444.927Z" fill="#FECCCB"/>
<path d="M266.887 444.927H278.007V456.05H266.887V444.927Z" fill="#FECCCB"/>
<path d="M311.37 422.682H322.49V433.805H311.37V422.682Z" fill="#FECCCB"/>
<path d="M311.37 444.927H322.49V456.05H311.37V444.927Z" fill="#FECCCB"/>
<path d="M656.113 400.436H644.993V411.56H656.113V400.436Z" fill="#FECCCB"/>
<path d="M656.113 422.682H644.993V433.805H656.113V422.682Z" fill="#FECCCB"/>
<path d="M633.873 400.436H622.753V411.56H633.873V400.436Z" fill="#FECCCB"/>
<path d="M611.63 400.436H600.51V411.56H611.63V400.436Z" fill="#FECCCB"/>
<path d="M633.873 422.682H622.753V433.805H633.873V422.682Z" fill="#FECCCB"/>
<path d="M633.873 444.927H622.753V456.05H633.873V444.927Z" fill="#FECCCB"/>
<path d="M656.113 444.927H644.993V456.05H656.113V444.927Z" fill="#FECCCB"/>
<path d="M611.63 422.682H600.51V433.805H611.63V422.682Z" fill="#FECCCB"/>
<path d="M611.63 444.927H600.51V456.05H611.63V444.927Z" fill="#FECCCB"/>
<path d="M266.887 467.174H278.007V478.297H266.887V467.174Z" fill="#FECCCB"/>
<path d="M266.887 489.419H278.007V500.542H266.887V489.419Z" fill="#FECCCB"/>
<path d="M289.127 467.174H300.247V478.297H289.127V467.174Z" fill="#FECCCB"/>
<path d="M311.37 467.174H322.49V478.297H311.37V467.174Z" fill="#FECCCB"/>
<path d="M289.127 489.419H300.247V500.542H289.127V489.419Z" fill="#FECCCB"/>
<path d="M289.127 511.664H300.247V522.788H289.127V511.664Z" fill="#FECCCB"/>
<path d="M266.887 511.664H278.007V522.788H266.887V511.664Z" fill="#FECCCB"/>
<path d="M311.37 489.419H322.49V500.542H311.37V489.419Z" fill="#FECCCB"/>
<path d="M311.37 511.664H322.49V522.788H311.37V511.664Z" fill="#FECCCB"/>
<path d="M656.113 467.174H644.993V478.297H656.113V467.174Z" fill="#FECCCB"/>
<path d="M656.113 489.419H644.993V500.542H656.113V489.419Z" fill="#FECCCB"/>
<path d="M633.873 467.174H622.753V478.297H633.873V467.174Z" fill="#FECCCB"/>
<path d="M611.63 467.174H600.51V478.297H611.63V467.174Z" fill="#FECCCB"/>
<path d="M633.873 489.419H622.753V500.542H633.873V489.419Z" fill="#FECCCB"/>
<path d="M633.873 511.664H622.753V522.788H633.873V511.664Z" fill="#FECCCB"/>
<path d="M656.113 511.664H644.993V522.788H656.113V511.664Z" fill="#FECCCB"/>
<path d="M611.63 489.419H600.51V500.542H611.63V489.419Z" fill="#FECCCB"/>
<path d="M611.63 511.664H600.51V522.788H611.63V511.664Z" fill="#FECCCB"/>
<path d="M266.889 533.909H278.009V545.032H266.889V533.909Z" fill="#FECCCB"/>
<path d="M266.887 556.157H278.007V567.28H266.887V556.157Z" fill="#FECCCB"/>
<path d="M289.127 533.912H300.247V545.035H289.127V533.912Z" fill="#FECCCB"/>
<path d="M311.37 533.912H322.49V545.035H311.37V533.912Z" fill="#FECCCB"/>
<path d="M289.127 556.157H300.247V567.28H289.127V556.157Z" fill="#FECCCB"/>
<path d="M289.127 578.402H300.247V589.525H289.127V578.402Z" fill="#FECCCB"/>
<path d="M266.887 578.402H278.007V589.525H266.887V578.402Z" fill="#FECCCB"/>
<path d="M311.37 556.157H322.49V567.28H311.37V556.157Z" fill="#FECCCB"/>
<path d="M311.37 578.402H322.49V589.525H311.37V578.402Z" fill="#FECCCB"/>
<path d="M656.111 533.909H644.991V545.032H656.111V533.909Z" fill="#FECCCB"/>
<path d="M656.113 556.157H644.993V567.28H656.113V556.157Z" fill="#FECCCB"/>
<path d="M633.873 533.912H622.753V545.035H633.873V533.912Z" fill="#FECCCB"/>
<path d="M611.63 533.912H600.51V545.035H611.63V533.912Z" fill="#FECCCB"/>
<path d="M633.873 556.157H622.753V567.28H633.873V556.157Z" fill="#FECCCB"/>
<path d="M633.873 578.402H622.753V589.525H633.873V578.402Z" fill="#FECCCB"/>
<path d="M656.113 578.402H644.993V589.525H656.113V578.402Z" fill="#FECCCB"/>
<path d="M611.63 556.157H600.51V567.28H611.63V556.157Z" fill="#FECCCB"/>
<path d="M611.63 578.402H600.51V589.525H611.63V578.402Z" fill="#FECCCB"/>
<path d="M333.609 66.7375H344.729V77.8606H333.609V66.7375Z" fill="#FF9D9B"/>
<path d="M333.609 88.9827H344.729V100.106H333.609V88.9827Z" fill="#FF9D9B"/>
<path d="M355.848 66.7375H366.969V77.8606H355.848V66.7375Z" fill="#FF9D9B"/>
<path d="M378.092 66.7375H389.212V77.8606H378.092V66.7375Z" fill="#FF9D9B"/>
<path d="M355.848 88.9827H366.969V100.106H355.848V88.9827Z" fill="#FF9D9B"/>
<path d="M355.848 111.228H366.969V122.351H355.848V111.228Z" fill="#FF9D9B"/>
<path d="M333.609 111.228H344.729V122.351H333.609V111.228Z" fill="#FF9D9B"/>
<path d="M378.092 88.9827H389.212V100.106H378.092V88.9827Z" fill="#FF9D9B"/>
<path d="M378.092 111.228H389.212V122.351H378.092V111.228Z" fill="#FF9D9B"/>
<path d="M589.391 66.7375H578.271V77.8606H589.391V66.7375Z" fill="#FECCCB"/>
<path d="M589.391 88.9827H578.271V100.106H589.391V88.9827Z" fill="#FECCCB"/>
<path d="M567.152 66.7375H556.031V77.8606H567.152V66.7375Z" fill="#FECCCB"/>
<path d="M544.909 66.7375H533.788V77.8606H544.909V66.7375Z" fill="#FECCCB"/>
<path d="M567.152 88.9827H556.031V100.106H567.152V88.9827Z" fill="#FECCCB"/>
<path d="M567.152 111.228H556.031V122.351H567.152V111.228Z" fill="#FECCCB"/>
<path d="M589.391 111.228H578.271V122.351H589.391V111.228Z" fill="#FECCCB"/>
<path d="M544.909 88.9827H533.788V100.106H544.909V88.9827Z" fill="#FECCCB"/>
<path d="M544.909 111.228H533.788V122.351H544.909V111.228Z" fill="#FECCCB"/>
<path d="M333.609 133.475H344.729V144.598H333.609V133.475Z" fill="#FECCCB"/>
<path d="M333.609 155.72H344.729V166.843H333.609V155.72Z" fill="#FECCCB"/>
<path d="M355.848 133.475H366.969V144.598H355.848V133.475Z" fill="#FECCCB"/>
<path d="M378.092 133.475H389.212V144.598H378.092V133.475Z" fill="#FECCCB"/>
<path d="M355.848 155.72H366.969V166.843H355.848V155.72Z" fill="#FECCCB"/>
<path d="M355.848 177.965H366.969V189.089H355.848V177.965Z" fill="#FECCCB"/>
<path d="M333.609 177.965H344.729V189.089H333.609V177.965Z" fill="#FECCCB"/>
<path d="M378.092 155.72H389.212V166.843H378.092V155.72Z" fill="#FECCCB"/>
<path d="M378.092 177.965H389.212V189.089H378.092V177.965Z" fill="#FECCCB"/>
<path d="M589.391 133.475H578.271V144.598H589.391V133.475Z" fill="#FECCCB"/>
<path d="M589.391 155.72H578.271V166.843H589.391V155.72Z" fill="#FECCCB"/>
<path d="M567.152 133.475H556.031V144.598H567.152V133.475Z" fill="#FECCCB"/>
<path d="M544.909 133.475H533.788V144.598H544.909V133.475Z" fill="#FECCCB"/>
<path d="M567.152 155.72H556.031V166.843H567.152V155.72Z" fill="#FECCCB"/>
<path d="M567.152 177.965H556.031V189.089H567.152V177.965Z" fill="#FECCCB"/>
<path d="M589.391 177.965H578.271V189.089H589.391V177.965Z" fill="#FECCCB"/>
<path d="M544.909 155.72H533.788V166.843H544.909V155.72Z" fill="#FECCCB"/>
<path d="M544.909 177.965H533.788V189.089H544.909V177.965Z" fill="#FECCCB"/>
<path d="M333.609 200.213H344.729V211.336H333.609V200.213Z" fill="#FECCCB"/>
<path d="M333.609 222.458H344.729V233.581H333.609V222.458Z" fill="#FECCCB"/>
<path d="M355.848 200.213H366.969V211.336H355.848V200.213Z" fill="#FECCCB"/>
<path d="M378.092 200.213H389.212V211.336H378.092V200.213Z" fill="#FECCCB"/>
<path d="M355.848 222.458H366.969V233.581H355.848V222.458Z" fill="#FECCCB"/>
<path d="M355.848 244.703H366.969V255.826H355.848V244.703Z" fill="#FECCCB"/>
<path d="M333.609 244.703H344.729V255.826H333.609V244.703Z" fill="#FECCCB"/>
<path d="M378.092 222.458H389.212V233.581H378.092V222.458Z" fill="#FECCCB"/>
<path d="M378.092 244.703H389.212V255.826H378.092V244.703Z" fill="#FECCCB"/>
<path d="M589.391 200.213H578.271V211.336H589.391V200.213Z" fill="#FECCCB"/>
<path d="M589.391 222.458H578.271V233.581H589.391V222.458Z" fill="#FECCCB"/>
<path d="M567.152 200.213H556.031V211.336H567.152V200.213Z" fill="#FECCCB"/>
<path d="M544.909 200.213H533.788V211.336H544.909V200.213Z" fill="#FECCCB"/>
<path d="M567.152 222.458H556.031V233.581H567.152V222.458Z" fill="#FECCCB"/>
<path d="M567.152 244.703H556.031V255.826H567.152V244.703Z" fill="#FECCCB"/>
<path d="M589.391 244.703H578.271V255.826H589.391V244.703Z" fill="#FECCCB"/>
<path d="M544.909 222.458H533.788V233.581H544.909V222.458Z" fill="#FECCCB"/>
<path d="M544.909 244.703H533.788V255.826H544.909V244.703Z" fill="#FECCCB"/>
<path d="M333.609 266.95H344.729V278.073H333.609V266.95Z" fill="#FECCCB"/>
<path d="M333.609 289.195H344.729V300.318H333.609V289.195Z" fill="#FECCCB"/>
<path d="M355.848 266.95H366.969V278.073H355.848V266.95Z" fill="#FECCCB"/>
<path d="M378.092 266.95H389.212V278.073H378.092V266.95Z" fill="#FECCCB"/>
<path d="M355.848 289.195H366.969V300.318H355.848V289.195Z" fill="#FECCCB"/>
<path d="M355.848 311.44H366.969V322.564H355.848V311.44Z" fill="#FECCCB"/>
<path d="M333.609 311.44H344.729V322.564H333.609V311.44Z" fill="#FECCCB"/>
<path d="M378.092 289.195H389.212V300.318H378.092V289.195Z" fill="#FECCCB"/>
<path d="M378.092 311.44H389.212V322.564H378.092V311.44Z" fill="#FECCCB"/>
<path d="M589.391 266.95H578.271V278.073H589.391V266.95Z" fill="#FECCCB"/>
<path d="M589.391 289.195H578.271V300.318H589.391V289.195Z" fill="#FECCCB"/>
<path d="M567.152 266.95H556.031V278.073H567.152V266.95Z" fill="#FECCCB"/>
<path d="M544.909 266.95H533.788V278.073H544.909V266.95Z" fill="#FECCCB"/>
<path d="M567.152 289.195H556.031V300.318H567.152V289.195Z" fill="#FECCCB"/>
<path d="M567.152 311.44H556.031V322.564H567.152V311.44Z" fill="#FECCCB"/>
<path d="M589.391 311.44H578.271V322.564H589.391V311.44Z" fill="#FECCCB"/>
<path d="M544.909 289.195H533.788V300.318H544.909V289.195Z" fill="#FECCCB"/>
<path d="M544.909 311.44H533.788V322.564H544.909V311.44Z" fill="#FECCCB"/>
<path d="M333.609 333.688H344.729V344.811H333.609V333.688Z" fill="#FECCCB"/>
<path d="M333.609 355.933H344.729V367.056H333.609V355.933Z" fill="#FECCCB"/>
<path d="M355.848 333.688H366.969V344.811H355.848V333.688Z" fill="#FECCCB"/>
<path d="M378.092 333.688H389.212V344.811H378.092V333.688Z" fill="#FECCCB"/>
<path d="M355.848 355.933H366.969V367.056H355.848V355.933Z" fill="#FECCCB"/>
<path d="M355.848 378.178H366.969V389.301H355.848V378.178Z" fill="#FECCCB"/>
<path d="M333.609 378.178H344.729V389.301H333.609V378.178Z" fill="#FECCCB"/>
<path d="M378.092 355.933H389.212V367.056H378.092V355.933Z" fill="#FECCCB"/>
<path d="M378.092 378.178H389.212V389.301H378.092V378.178Z" fill="#FECCCB"/>
<path d="M589.391 333.688H578.271V344.811H589.391V333.688Z" fill="#FF9D9B"/>
<path d="M589.391 355.933H578.271V367.056H589.391V355.933Z" fill="#FF9D9B"/>
<path d="M567.152 333.688H556.031V344.811H567.152V333.688Z" fill="#FF9D9B"/>
<path d="M544.909 333.688H533.788V344.811H544.909V333.688Z" fill="#FF9D9B"/>
<path d="M567.152 355.933H556.031V367.056H567.152V355.933Z" fill="#FF9D9B"/>
<path d="M567.152 378.178H556.031V389.301H567.152V378.178Z" fill="#FF9D9B"/>
<path d="M589.391 378.178H578.271V389.301H589.391V378.178Z" fill="#FF9D9B"/>
<path d="M544.909 355.933H533.788V367.056H544.909V355.933Z" fill="#FF9D9B"/>
<path d="M544.909 378.178H533.788V389.301H544.909V378.178Z" fill="#FF9D9B"/>
<path d="M333.609 400.436H344.729V411.56H333.609V400.436Z" fill="#FECCCB"/>
<path d="M333.609 422.682H344.729V433.805H333.609V422.682Z" fill="#FECCCB"/>
<path d="M355.848 400.436H366.969V411.56H355.848V400.436Z" fill="#FECCCB"/>
<path d="M378.092 400.436H389.212V411.56H378.092V400.436Z" fill="#FECCCB"/>
<path d="M355.848 422.682H366.969V433.805H355.848V422.682Z" fill="#FECCCB"/>
<path d="M355.848 444.927H366.969V456.05H355.848V444.927Z" fill="#FECCCB"/>
<path d="M333.609 444.927H344.729V456.05H333.609V444.927Z" fill="#FECCCB"/>
<path d="M378.092 422.682H389.212V433.805H378.092V422.682Z" fill="#FECCCB"/>
<path d="M378.092 444.927H389.212V456.05H378.092V444.927Z" fill="#FECCCB"/>
<path d="M589.391 400.436H578.271V411.56H589.391V400.436Z" fill="#FECCCB"/>
<path d="M589.391 422.682H578.271V433.805H589.391V422.682Z" fill="#FECCCB"/>
<path d="M567.152 400.436H556.031V411.56H567.152V400.436Z" fill="#FECCCB"/>
<path d="M544.909 400.436H533.788V411.56H544.909V400.436Z" fill="#FECCCB"/>
<path d="M567.152 422.682H556.031V433.805H567.152V422.682Z" fill="#FECCCB"/>
<path d="M567.152 444.927H556.031V456.05H567.152V444.927Z" fill="#FECCCB"/>
<path d="M589.391 444.927H578.271V456.05H589.391V444.927Z" fill="#FECCCB"/>
<path d="M544.909 422.682H533.788V433.805H544.909V422.682Z" fill="#FECCCB"/>
<path d="M544.909 444.927H533.788V456.05H544.909V444.927Z" fill="#FECCCB"/>
<path d="M333.609 467.174H344.729V478.297H333.609V467.174Z" fill="#FF9D9B"/>
<path d="M333.609 489.419H344.729V500.542H333.609V489.419Z" fill="#FF9D9B"/>
<path d="M355.848 467.174H366.969V478.297H355.848V467.174Z" fill="#FF9D9B"/>
<path d="M378.092 467.174H389.212V478.297H378.092V467.174Z" fill="#FF9D9B"/>
<path d="M355.848 489.419H366.969V500.542H355.848V489.419Z" fill="#FF9D9B"/>
<path d="M355.848 511.664H366.969V522.788H355.848V511.664Z" fill="#FF9D9B"/>
<path d="M333.609 511.664H344.729V522.788H333.609V511.664Z" fill="#FF9D9B"/>
<path d="M378.092 489.419H389.212V500.542H378.092V489.419Z" fill="#FF9D9B"/>
<path d="M378.092 511.664H389.212V522.788H378.092V511.664Z" fill="#FF9D9B"/>
<path d="M589.391 467.174H578.271V478.297H589.391V467.174Z" fill="#FECCCB"/>
<path d="M589.391 489.419H578.271V500.542H589.391V489.419Z" fill="#FECCCB"/>
<path d="M567.152 467.174H556.031V478.297H567.152V467.174Z" fill="#FECCCB"/>
<path d="M544.909 467.174H533.788V478.297H544.909V467.174Z" fill="#FECCCB"/>
<path d="M567.152 489.419H556.031V500.542H567.152V489.419Z" fill="#FECCCB"/>
<path d="M567.152 511.664H556.031V522.788H567.152V511.664Z" fill="#FECCCB"/>
<path d="M589.391 511.664H578.271V522.788H589.391V511.664Z" fill="#FECCCB"/>
<path d="M544.909 489.419H533.788V500.542H544.909V489.419Z" fill="#FECCCB"/>
<path d="M544.909 511.664H533.788V522.788H544.909V511.664Z" fill="#FECCCB"/>
<path d="M333.609 533.912H344.729V545.035H333.609V533.912Z" fill="#FF9D9B"/>
<path d="M333.609 556.157H344.729V567.28H333.609V556.157Z" fill="#FF9D9B"/>
<path d="M355.848 533.912H366.969V545.035H355.848V533.912Z" fill="#FF9D9B"/>
<path d="M378.092 533.912H389.212V545.035H378.092V533.912Z" fill="#FF9D9B"/>
<path d="M355.848 556.157H366.969V567.28H355.848V556.157Z" fill="#FF9D9B"/>
<path d="M355.848 578.402H366.969V589.525H355.848V578.402Z" fill="#FF9D9B"/>
<path d="M333.609 578.402H344.729V589.525H333.609V578.402Z" fill="#FF9D9B"/>
<path d="M378.092 556.157H389.212V567.28H378.092V556.157Z" fill="#FF9D9B"/>
<path d="M378.092 578.402H389.212V589.525H378.092V578.402Z" fill="#FF9D9B"/>
<path d="M589.391 533.912H578.271V545.035H589.391V533.912Z" fill="#FECCCB"/>
<path d="M589.391 556.157H578.271V567.28H589.391V556.157Z" fill="#FECCCB"/>
<path d="M567.152 533.912H556.031V545.035H567.152V533.912Z" fill="#FECCCB"/>
<path d="M544.909 533.912H533.788V545.035H544.909V533.912Z" fill="#FECCCB"/>
<path d="M567.152 556.157H556.031V567.28H567.152V556.157Z" fill="#FECCCB"/>
<path d="M567.152 578.402H556.031V589.525H567.152V578.402Z" fill="#FECCCB"/>
<path d="M589.391 578.402H578.271V589.525H589.391V578.402Z" fill="#FECCCB"/>
<path d="M544.909 556.157H533.788V567.28H544.909V556.157Z" fill="#FECCCB"/>
<path d="M544.909 578.402H533.788V589.525H544.909V578.402Z" fill="#FECCCB"/>
<path d="M333.609 600.649H344.729V611.772H333.609V600.649Z" fill="#FECCCB"/>
<path d="M333.609 622.894H344.729V634.017H333.609V622.894Z" fill="#FECCCB"/>
<path d="M355.848 600.649H366.969V611.772H355.848V600.649Z" fill="#FECCCB"/>
<path d="M378.092 600.649H389.212V611.772H378.092V600.649Z" fill="#FECCCB"/>
<path d="M355.848 622.894H366.969V634.017H355.848V622.894Z" fill="#FECCCB"/>
<path d="M355.848 645.139H366.969V656.263H355.848V645.139Z" fill="#FECCCB"/>
<path d="M333.609 645.139H344.729V656.263H333.609V645.139Z" fill="#FECCCB"/>
<path d="M378.092 622.894H389.212V634.017H378.092V622.894Z" fill="#FECCCB"/>
<path d="M378.092 645.139H389.212V656.263H378.092V645.139Z" fill="#FECCCB"/>
<path d="M589.391 600.649H578.271V611.772H589.391V600.649Z" fill="#FECCCB"/>
<path d="M589.391 622.894H578.271V634.017H589.391V622.894Z" fill="#FECCCB"/>
<path d="M567.152 600.649H556.031V611.772H567.152V600.649Z" fill="#FECCCB"/>
<path d="M544.909 600.649H533.788V611.772H544.909V600.649Z" fill="#FECCCB"/>
<path d="M567.152 622.894H556.031V634.017H567.152V622.894Z" fill="#FECCCB"/>
<path d="M567.152 645.139H556.031V656.263H567.152V645.139Z" fill="#FECCCB"/>
<path d="M589.391 645.139H578.271V656.263H589.391V645.139Z" fill="#FECCCB"/>
<path d="M544.909 622.894H533.788V634.017H544.909V622.894Z" fill="#FECCCB"/>
<path d="M544.909 645.139H533.788V656.263H544.909V645.139Z" fill="#FECCCB"/>
<path d="M400.342 133.475H411.462V144.598H400.342V133.475Z" fill="#FECCCB"/>
<path d="M400.342 155.72H411.462V166.843H400.342V155.72Z" fill="#FECCCB"/>
<path d="M422.582 133.475H433.702V144.598H422.582V133.475Z" fill="#FECCCB"/>
<path d="M444.825 133.475H455.945V144.598H444.825V133.475Z" fill="#FECCCB"/>
<path d="M422.582 155.72H433.702V166.843H422.582V155.72Z" fill="#FECCCB"/>
<path d="M422.582 177.965H433.702V189.089H422.582V177.965Z" fill="#FECCCB"/>
<path d="M400.342 177.965H411.462V189.089H400.342V177.965Z" fill="#FECCCB"/>
<path d="M444.825 155.72H455.945V166.843H444.825V155.72Z" fill="#FECCCB"/>
<path d="M444.825 177.965H455.945V189.089H444.825V177.965Z" fill="#FECCCB"/>
<path d="M522.658 133.475H511.538V144.598H522.658V133.475Z" fill="#FECCCB"/>
<path d="M522.658 155.72H511.538V166.843H522.658V155.72Z" fill="#FECCCB"/>
<path d="M500.418 133.475H489.298V144.598H500.418V133.475Z" fill="#FECCCB"/>
<path d="M478.175 133.475H467.055V144.598H478.175V133.475Z" fill="#FECCCB"/>
<path d="M500.418 155.72H489.298V166.843H500.418V155.72Z" fill="#FECCCB"/>
<path d="M500.418 177.965H489.298V189.089H500.418V177.965Z" fill="#FECCCB"/>
<path d="M522.658 177.965H511.538V189.089H522.658V177.965Z" fill="#FECCCB"/>
<path d="M478.175 155.72H467.055V166.843H478.175V155.72Z" fill="#FECCCB"/>
<path d="M478.175 177.965H467.055V189.089H478.175V177.965Z" fill="#FECCCB"/>
<path d="M400.34 200.215H411.461V211.338H400.34V200.215Z" fill="#FECCCB"/>
<path d="M400.342 222.458H411.462V233.581H400.342V222.458Z" fill="#FECCCB"/>
<path d="M422.582 200.213H433.702V211.336H422.582V200.213Z" fill="#FECCCB"/>
<path d="M444.825 200.213H455.945V211.336H444.825V200.213Z" fill="#FECCCB"/>
<path d="M422.582 222.458H433.702V233.581H422.582V222.458Z" fill="#FECCCB"/>
<path d="M422.582 244.703H433.702V255.826H422.582V244.703Z" fill="#FECCCB"/>
<path d="M400.342 244.703H411.462V255.826H400.342V244.703Z" fill="#FECCCB"/>
<path d="M444.825 222.458H455.945V233.581H444.825V222.458Z" fill="#FECCCB"/>
<path d="M444.825 244.703H455.945V255.826H444.825V244.703Z" fill="#FECCCB"/>
<path d="M522.66 200.215H511.539V211.338H522.66V200.215Z" fill="#FECCCB"/>
<path d="M522.658 222.458H511.538V233.581H522.658V222.458Z" fill="#FECCCB"/>
<path d="M500.418 200.213H489.298V211.336H500.418V200.213Z" fill="#FECCCB"/>
<path d="M478.175 200.213H467.055V211.336H478.175V200.213Z" fill="#FECCCB"/>
<path d="M500.418 222.458H489.298V233.581H500.418V222.458Z" fill="#FECCCB"/>
<path d="M500.418 244.703H489.298V255.826H500.418V244.703Z" fill="#FECCCB"/>
<path d="M522.658 244.703H511.538V255.826H522.658V244.703Z" fill="#FECCCB"/>
<path d="M478.175 222.458H467.055V233.581H478.175V222.458Z" fill="#FECCCB"/>
<path d="M478.175 244.703H467.055V255.826H478.175V244.703Z" fill="#FECCCB"/>
<path d="M400.342 266.95H411.462V278.073H400.342V266.95Z" fill="#FECCCB"/>
<path d="M400.342 289.195H411.462V300.318H400.342V289.195Z" fill="#FECCCB"/>
<path d="M422.582 266.95H433.702V278.073H422.582V266.95Z" fill="#FECCCB"/>
<path d="M444.825 266.95H455.945V278.073H444.825V266.95Z" fill="#FECCCB"/>
<path d="M422.582 289.195H433.702V300.318H422.582V289.195Z" fill="#FECCCB"/>
<path d="M422.582 311.44H433.702V322.564H422.582V311.44Z" fill="#FECCCB"/>
<path d="M400.342 311.44H411.462V322.564H400.342V311.44Z" fill="#FECCCB"/>
<path d="M444.825 289.195H455.945V300.318H444.825V289.195Z" fill="#FECCCB"/>
<path d="M444.825 311.44H455.945V322.564H444.825V311.44Z" fill="#FECCCB"/>
<path d="M522.658 266.95H511.538V278.073H522.658V266.95Z" fill="#FF9D9B"/>
<path d="M522.658 289.195H511.538V300.318H522.658V289.195Z" fill="#FF9D9B"/>
<path d="M500.418 266.95H489.298V278.073H500.418V266.95Z" fill="#FF9D9B"/>
<path d="M478.175 266.95H467.055V278.073H478.175V266.95Z" fill="#FF9D9B"/>
<path d="M500.418 289.195H489.298V300.318H500.418V289.195Z" fill="#FF9D9B"/>
<path d="M500.418 311.44H489.298V322.564H500.418V311.44Z" fill="#FF9D9B"/>
<path d="M522.658 311.44H511.538V322.564H522.658V311.44Z" fill="#FF9D9B"/>
<path d="M478.175 289.195H467.055V300.318H478.175V289.195Z" fill="#FF9D9B"/>
<path d="M478.175 311.44H467.055V322.564H478.175V311.44Z" fill="#FF9D9B"/>
<path d="M400.342 333.688H411.462V344.811H400.342V333.688Z" fill="#FECCCB"/>
<path d="M400.342 355.933H411.462V367.056H400.342V355.933Z" fill="#FECCCB"/>
<path d="M422.582 333.688H433.702V344.811H422.582V333.688Z" fill="#FECCCB"/>
<path d="M444.825 333.688H455.945V344.811H444.825V333.688Z" fill="#FECCCB"/>
<path d="M422.582 355.933H433.702V367.056H422.582V355.933Z" fill="#FECCCB"/>
<path d="M422.582 378.178H433.702V389.301H422.582V378.178Z" fill="#FECCCB"/>
<path d="M400.342 378.178H411.462V389.301H400.342V378.178Z" fill="#FECCCB"/>
<path d="M444.825 355.933H455.945V367.056H444.825V355.933Z" fill="#FECCCB"/>
<path d="M444.825 378.178H455.945V389.301H444.825V378.178Z" fill="#FECCCB"/>
<path d="M522.658 333.688H511.538V344.811H522.658V333.688Z" fill="#FECCCB"/>
<path d="M522.658 355.933H511.538V367.056H522.658V355.933Z" fill="#FECCCB"/>
<path d="M500.418 333.688H489.298V344.811H500.418V333.688Z" fill="#FECCCB"/>
<path d="M478.175 333.688H467.055V344.811H478.175V333.688Z" fill="#FECCCB"/>
<path d="M500.418 355.933H489.298V367.056H500.418V355.933Z" fill="#FECCCB"/>
<path d="M500.418 378.178H489.298V389.301H500.418V378.178Z" fill="#FECCCB"/>
<path d="M522.658 378.178H511.538V389.301H522.658V378.178Z" fill="#FECCCB"/>
<path d="M478.175 355.933H467.055V367.056H478.175V355.933Z" fill="#FECCCB"/>
<path d="M478.175 378.178H467.055V389.301H478.175V378.178Z" fill="#FECCCB"/>
<path d="M400.342 400.436H411.462V411.56H400.342V400.436Z" fill="#FECCCB"/>
<path d="M400.342 422.682H411.462V433.805H400.342V422.682Z" fill="#FECCCB"/>
<path d="M422.582 400.436H433.702V411.56H422.582V400.436Z" fill="#FECCCB"/>
<path d="M444.825 400.436H455.945V411.56H444.825V400.436Z" fill="#FECCCB"/>
<path d="M422.582 422.682H433.702V433.805H422.582V422.682Z" fill="#FECCCB"/>
<path d="M422.582 444.927H433.702V456.05H422.582V444.927Z" fill="#FECCCB"/>
<path d="M400.342 444.927H411.462V456.05H400.342V444.927Z" fill="#FECCCB"/>
<path d="M444.825 422.682H455.945V433.805H444.825V422.682Z" fill="#FECCCB"/>
<path d="M444.825 444.927H455.945V456.05H444.825V444.927Z" fill="#FECCCB"/>
<path d="M522.658 400.436H511.538V411.56H522.658V400.436Z" fill="#FECCCB"/>
<path d="M522.658 422.682H511.538V433.805H522.658V422.682Z" fill="#FECCCB"/>
<path d="M500.418 400.436H489.298V411.56H500.418V400.436Z" fill="#FECCCB"/>
<path d="M478.175 400.436H467.055V411.56H478.175V400.436Z" fill="#FECCCB"/>
<path d="M500.418 422.682H489.298V433.805H500.418V422.682Z" fill="#FECCCB"/>
<path d="M500.418 444.927H489.298V456.05H500.418V444.927Z" fill="#FECCCB"/>
<path d="M522.658 444.927H511.538V456.05H522.658V444.927Z" fill="#FECCCB"/>
<path d="M478.175 422.682H467.055V433.805H478.175V422.682Z" fill="#FECCCB"/>
<path d="M478.175 444.927H467.055V456.05H478.175V444.927Z" fill="#FECCCB"/>
<path d="M400.342 467.174H411.462V478.297H400.342V467.174Z" fill="#FECCCB"/>
<path d="M400.342 489.419H411.462V500.542H400.342V489.419Z" fill="#FECCCB"/>
<path d="M422.582 467.174H433.702V478.297H422.582V467.174Z" fill="#FECCCB"/>
<path d="M444.825 467.174H455.945V478.297H444.825V467.174Z" fill="#FECCCB"/>
<path d="M422.582 489.419H433.702V500.542H422.582V489.419Z" fill="#FECCCB"/>
<path d="M422.582 511.664H433.702V522.788H422.582V511.664Z" fill="#FECCCB"/>
<path d="M400.342 511.664H411.462V522.788H400.342V511.664Z" fill="#FECCCB"/>
<path d="M444.825 489.419H455.945V500.542H444.825V489.419Z" fill="#FECCCB"/>
<path d="M444.825 511.664H455.945V522.788H444.825V511.664Z" fill="#FECCCB"/>
<path d="M522.658 467.174H511.538V478.297H522.658V467.174Z" fill="#FECCCB"/>
<path d="M522.658 489.419H511.538V500.542H522.658V489.419Z" fill="#FECCCB"/>
<path d="M500.418 467.174H489.298V478.297H500.418V467.174Z" fill="#FECCCB"/>
<path d="M478.175 467.174H467.055V478.297H478.175V467.174Z" fill="#FECCCB"/>
<path d="M500.418 489.419H489.298V500.542H500.418V489.419Z" fill="#FECCCB"/>
<path d="M500.418 511.664H489.298V522.788H500.418V511.664Z" fill="#FECCCB"/>
<path d="M522.658 511.664H511.538V522.788H522.658V511.664Z" fill="#FECCCB"/>
<path d="M478.175 489.419H467.055V500.542H478.175V489.419Z" fill="#FECCCB"/>
<path d="M478.175 511.664H467.055V522.788H478.175V511.664Z" fill="#FECCCB"/>
<path d="M400.342 533.912H411.462V545.035H400.342V533.912Z" fill="#FECCCB"/>
<path d="M400.342 556.157H411.462V567.28H400.342V556.157Z" fill="#FECCCB"/>
<path d="M422.582 533.912H433.702V545.035H422.582V533.912Z" fill="#FECCCB"/>
<path d="M444.825 533.912H455.945V545.035H444.825V533.912Z" fill="#FECCCB"/>
<path d="M422.582 556.157H433.702V567.28H422.582V556.157Z" fill="#FECCCB"/>
<path d="M422.582 578.402H433.702V589.525H422.582V578.402Z" fill="#FECCCB"/>
<path d="M400.342 578.402H411.462V589.525H400.342V578.402Z" fill="#FECCCB"/>
<path d="M444.825 556.157H455.945V567.28H444.825V556.157Z" fill="#FECCCB"/>
<path d="M444.825 578.402H455.945V589.525H444.825V578.402Z" fill="#FECCCB"/>
<path d="M522.658 533.912H511.538V545.035H522.658V533.912Z" fill="#FECCCB"/>
<path d="M522.658 556.157H511.538V567.28H522.658V556.157Z" fill="#FECCCB"/>
<path d="M500.418 533.912H489.298V545.035H500.418V533.912Z" fill="#FECCCB"/>
<path d="M478.175 533.912H467.055V545.035H478.175V533.912Z" fill="#FECCCB"/>
<path d="M500.418 556.157H489.298V567.28H500.418V556.157Z" fill="#FECCCB"/>
<path d="M500.418 578.402H489.298V589.525H500.418V578.402Z" fill="#FECCCB"/>
<path d="M522.658 578.402H511.538V589.525H522.658V578.402Z" fill="#FECCCB"/>
<path d="M478.175 556.157H467.055V567.28H478.175V556.157Z" fill="#FECCCB"/>
<path d="M478.175 578.402H467.055V589.525H478.175V578.402Z" fill="#FECCCB"/>
<path d="M400.34 600.65H411.461V611.773H400.34V600.65Z" fill="#FECCCB"/>
<path d="M400.342 622.894H411.462V634.017H400.342V622.894Z" fill="#FECCCB"/>
<path d="M422.582 600.649H433.702V611.772H422.582V600.649Z" fill="#FECCCB"/>
<path d="M444.825 600.649H455.945V611.772H444.825V600.649Z" fill="#FECCCB"/>
<path d="M422.582 622.894H433.702V634.017H422.582V622.894Z" fill="#FECCCB"/>
<path d="M422.582 645.139H433.702V656.263H422.582V645.139Z" fill="#FECCCB"/>
<path d="M400.342 645.139H411.462V656.263H400.342V645.139Z" fill="#FECCCB"/>
<path d="M444.825 622.894H455.945V634.017H444.825V622.894Z" fill="#FECCCB"/>
<path d="M444.825 645.139H455.945V656.263H444.825V645.139Z" fill="#FECCCB"/>
<path d="M522.66 600.65H511.539V611.773H522.66V600.65Z" fill="#FECCCB"/>
<path d="M522.658 622.894H511.538V634.017H522.658V622.894Z" fill="#FECCCB"/>
<path d="M500.418 600.649H489.298V611.772H500.418V600.649Z" fill="#FECCCB"/>
<path d="M478.175 600.649H467.055V611.772H478.175V600.649Z" fill="#FECCCB"/>
<path d="M500.418 622.894H489.298V634.017H500.418V622.894Z" fill="#FECCCB"/>
<path d="M500.418 645.139H489.298V656.263H500.418V645.139Z" fill="#FECCCB"/>
<path d="M522.658 645.139H511.538V656.263H522.658V645.139Z" fill="#FECCCB"/>
<path d="M478.175 622.894H467.055V634.017H478.175V622.894Z" fill="#FECCCB"/>
<path d="M478.175 645.139H467.055V656.263H478.175V645.139Z" fill="#FECCCB"/>
<path d="M400.342 667.387H411.462V678.51H400.342V667.387Z" fill="#FECCCB"/>
<path d="M400.342 689.632H411.462V700.755H400.342V689.632Z" fill="#FECCCB"/>
<path d="M422.582 667.387H433.702V678.51H422.582V667.387Z" fill="#FECCCB"/>
<path d="M444.825 667.387H455.945V678.51H444.825V667.387Z" fill="#FECCCB"/>
<path d="M422.582 689.632H433.702V700.755H422.582V689.632Z" fill="#FECCCB"/>
<path d="M422.582 711.877H433.702V723H422.582V711.877Z" fill="#FECCCB"/>
<path d="M400.342 711.877H411.462V723H400.342V711.877Z" fill="#FECCCB"/>
<path d="M444.825 689.632H455.945V700.755H444.825V689.632Z" fill="#FECCCB"/>
<path d="M444.825 711.877H455.945V723H444.825V711.877Z" fill="#FECCCB"/>
<path d="M522.658 667.387H511.538V678.51H522.658V667.387Z" fill="#FF9D9B"/>
<path d="M522.658 689.632H511.538V700.755H522.658V689.632Z" fill="#FF9D9B"/>
<path d="M500.418 667.387H489.298V678.51H500.418V667.387Z" fill="#FF9D9B"/>
<path d="M478.175 667.387H467.055V678.51H478.175V667.387Z" fill="#FF9D9B"/>
<path d="M500.418 689.632H489.298V700.755H500.418V689.632Z" fill="#FF9D9B"/>
<path d="M500.418 711.877H489.298V723H500.418V711.877Z" fill="#FF9D9B"/>
<path d="M522.658 711.877H511.538V723H522.658V711.877Z" fill="#FF9D9B"/>
<path d="M478.175 689.632H467.055V700.755H478.175V689.632Z" fill="#FF9D9B"/>
<path d="M478.175 711.877H467.055V723H478.175V711.877Z" fill="#FF9D9B"/>
</g>
</svg>
