<svg width="140" height="120" viewBox="0 0 140 120" fill="none" xmlns="http://www.w3.org/2000/svg">
<path d="M20 20H120V60H20V20Z" fill="#B32F21"/>
<path d="M40 60H100V100H40V60Z" fill="#B32F21"/>
<path d="M80 80H100V100H80V80Z" fill="black"/>
<path d="M100 60H120V80H100V60Z" fill="black"/>
<path d="M120 20H140V60H120V20Z" fill="black"/>
<path d="M80 20V0H120V20H80Z" fill="black"/>
<path d="M20 20V0H60V20H20Z" fill="black"/>
<path d="M20 60H40V80H20V60Z" fill="black"/>
<path d="M0 20H20V60H0V20Z" fill="black"/>
<path d="M60 20H80V40H60V20Z" fill="black"/>
<path d="M40 80H60V100H40V80Z" fill="black"/>
<path d="M80 40H100V60H80V40Z" fill="#FD5D85"/>
<path d="M60 100H80V120H60V100Z" fill="black"/>
</svg>
