<svg width="423" height="239" viewBox="0 0 423 239" fill="none" xmlns="http://www.w3.org/2000/svg">
<path d="M120.5 0H100.5V20H120.5V0Z" fill="black"/>
<path d="M100.5 20H80.5V40H100.5V20Z" fill="black"/>
<path d="M80.5 40H60.5V60H80.5V40Z" fill="black"/>
<path d="M302.5 0H322.5V20H302.5V0Z" fill="black"/>
<path d="M322.5 20H342.5V40H322.5V20Z" fill="black"/>
<path d="M342.5 40H362.5V60H342.5V40Z" fill="black"/>
<path d="M0.5 101H100.5V121H0.5V101Z" fill="black"/>
<path d="M0.5 121H100.5V139H0.5V121Z" fill="#41A0D9"/>
<path d="M0.5 139H100.5V239H0.5V139Z" fill="#96DBE1"/>
<path d="M322.5 101H422.5V121H322.5V101Z" fill="black"/>
<path d="M322.5 121H422.5V139H322.5V121Z" fill="#41A0D9"/>
<path d="M322.5 139H422.5V239H322.5V139Z" fill="#96DBE1"/>
<path d="M161.5 140H261.5V160H161.5V140Z" fill="black"/>
<path d="M141.5 160H161.5V200H141.5V160Z" fill="black"/>
<path d="M261.5 160H281.5V200H261.5V160Z" fill="black"/>
</svg>
