<svg width="423" height="262" viewBox="0 0 423 262" fill="none" xmlns="http://www.w3.org/2000/svg">
<path d="M322.5 0H342.5V20H322.5V0Z" fill="black"/>
<path d="M342.5 20H362.5V40H342.5V20Z" fill="black"/>
<path d="M362.5 40H382.5V60H362.5V40Z" fill="black"/>
<path d="M100.5 0H80.5V20H100.5V0Z" fill="black"/>
<path d="M80.5 20H60.5V40H80.5V20Z" fill="black"/>
<path d="M60.5 40H40.5V60H60.5V40Z" fill="black"/>
<path d="M362.5 121H382.5V141H362.5V121Z" fill="black"/>
<path d="M382.5 141H402.5V161H382.5V141Z" fill="black"/>
<path d="M402.5 161H422.5V181H402.5V161Z" fill="black"/>
<path d="M322.5 81H342.5V101H322.5V81Z" fill="black"/>
<path d="M342.5 101H362.5V121H342.5V101Z" fill="black"/>
<path d="M362.5 121H382.5V141H362.5V121Z" fill="black"/>
<path d="M382.5 121H362.5V141H382.5V121Z" fill="black"/>
<path d="M362.5 141H342.5V161H362.5V141Z" fill="black"/>
<path d="M342.5 161H322.5V181H342.5V161Z" fill="black"/>
<path d="M422.5 81H402.5V101H422.5V81Z" fill="black"/>
<path d="M402.5 101H382.5V121H402.5V101Z" fill="black"/>
<path d="M382.5 121H362.5V141H382.5V121Z" fill="black"/>
<path d="M40.5 122H60.5V142H40.5V122Z" fill="black"/>
<path d="M60.5 142H80.5V162H60.5V142Z" fill="black"/>
<path d="M80.5 162H100.5V182H80.5V162Z" fill="black"/>
<path d="M0.5 82H20.5V102H0.5V82Z" fill="black"/>
<path d="M20.5 102H40.5V122H20.5V102Z" fill="black"/>
<path d="M40.5 122H60.5V142H40.5V122Z" fill="black"/>
<path d="M60.5 122H40.5V142H60.5V122Z" fill="black"/>
<path d="M40.5 142H20.5V162H40.5V142Z" fill="black"/>
<path d="M20.5 162H0.5V182H20.5V162Z" fill="black"/>
<path d="M100.5 82H80.5V102H100.5V82Z" fill="black"/>
<path d="M80.5 102H60.5V122H80.5V102Z" fill="black"/>
<path d="M60.5 122H40.5V142H60.5V122Z" fill="black"/>
<path d="M161.5 182H261.5V202H161.5V182Z" fill="black"/>
<path d="M161.5 242H261.5V262H161.5V242Z" fill="black"/>
<path d="M141.5 202H161.5V262H141.5V202Z" fill="black"/>
<path d="M261.5 202H281.5V262H261.5V202Z" fill="black"/>
<path d="M161.5 202H261.5V242H161.5V202Z" fill="#EE6284"/>
<path d="M179.5 222H243.5V242H179.5V222Z" fill="#F0B5A6"/>
</svg>
