<svg width="464" height="261" viewBox="0 0 464 261" fill="none" xmlns="http://www.w3.org/2000/svg">
<path d="M41.5 61H100.5V80.5H121.5V100.5H141.5V160.5H121.5V181H101.5V201H41.5V181H20.5V160.5H0.5V100.5H20.5V80.5H41.5V61Z" fill="black"/>
<path d="M100.5 80.5H41.5V100.5H20.5V160.5H41.5V181H102V160.5H121.5V100.5H100.5V80.5Z" fill="#455B71"/>
<path d="M21.5 200.5H121V240.5H101V260.5H40.5V240.5H21.5V200.5Z" fill="#F8B0AB"/>
<path d="M121.5 160.5H102V181H41.5V160.5H20.5V140.5H41.5V160.5H102V140.5H121.5V160.5Z" fill="#343D5A"/>
<path d="M101 100.5H79.5V122H101V100.5Z" fill="#EFFCF4"/>
<path d="M363.5 60H422.5V79.5H443.5V99.5H463.5V159.5H443.5V180H423.5V200H363.5V180H342.5V159.5H322.5V99.5H342.5V79.5H363.5V60Z" fill="black"/>
<path d="M422.5 79.5H363.5V99.5H342.5V159.5H363.5V180H424V159.5H443.5V99.5H422.5V79.5Z" fill="#455B71"/>
<path d="M343.5 199.5H443V239.5H423V259.5H362.5V239.5H343.5V199.5Z" fill="#F8B0AB"/>
<path d="M443.5 159.5H424V180H363.5V159.5H342.5V139.5H363.5V159.5H424V139.5H443.5V159.5Z" fill="#343D5A"/>
<path d="M423 99.5H401.5V121H423V99.5Z" fill="#EFFCF4"/>
<path d="M81.5 0H101.5V20H81.5V0Z" fill="black"/>
<path d="M101.5 20H121.5V40H101.5V20Z" fill="black"/>
<path d="M121.5 40H141.5V60H121.5V40Z" fill="black"/>
<path d="M382.5 0H362.5V20H382.5V0Z" fill="black"/>
<path d="M362.5 20H342.5V40H362.5V20Z" fill="black"/>
<path d="M342.5 40H322.5V60H342.5V40Z" fill="black"/>
<path d="M182.5 181H202.5V201H182.5V181Z" fill="black"/>
<path d="M262.5 181H282.5V201H262.5V181Z" fill="black"/>
<path d="M202.5 161H262.5V181H202.5V161Z" fill="black"/>
</svg>
