<svg width="464" height="261" viewBox="0 0 464 261" fill="none" xmlns="http://www.w3.org/2000/svg">
<path d="M181 180H281V240H181V180Z" fill="#EE6284"/>
<path d="M199 220H263V240H199V220Z" fill="#F0B5A6"/>
<path d="M41 61H100V80.5H121V100.5H141V160.5H121V181H101.5H41H21V160.5H0V100.5H21V80.5H41V61Z" fill="black"/>
<path d="M100 80.5H41V100.5H21V160.5H41V181H101.5V160.5H121V100.5H100V80.5Z" fill="#455B71"/>
<path d="M121 160.5H101.5V181H41V160.5H21V140.5H41V160.5H101.5V140.5H121V160.5Z" fill="#343D5A"/>
<path d="M100.5 100.5H79V122H100.5V100.5Z" fill="#EFFCF4"/>
<path d="M21 161H121V181H21V161Z" fill="black"/>
<path d="M364 61H423V80.5H444V100.5H464V160.5H444V181H424.5H364H344V160.5H323V100.5H344V80.5H364V61Z" fill="black"/>
<path d="M423 80.5H364V100.5H344V160.5H364V181H424.5V160.5H444V100.5H423V80.5Z" fill="#455B71"/>
<path d="M444 160.5H424.5V181H364V160.5H344V140.5H364V160.5H424.5V140.5H444V160.5Z" fill="#343D5A"/>
<path d="M423.5 100.5H402V122H423.5V100.5Z" fill="#EFFCF4"/>
<path d="M344 161H444V181H344V161Z" fill="black"/>
<path d="M281 260H181V240H281V260Z" fill="black"/>
<path d="M301 240H281V160H301V240Z" fill="black"/>
<path d="M181 240H161V160H181V240Z" fill="black"/>
<path d="M281 160V180H181V160H281Z" fill="black"/>
<path d="M40 181H100V261H40V181Z" fill="#F8B0AB"/>
<path d="M363 181H423V261H363V181Z" fill="#F8B0AB"/>
<path d="M20 241V201H120V241H20Z" fill="#F8B0AB"/>
<path d="M343 241V201H443V241H343Z" fill="#F8B0AB"/>
<path d="M41 0H101V20H41V0Z" fill="black"/>
<path d="M21 20H41V40H21V20Z" fill="black"/>
<path d="M101 20H121V40H101V20Z" fill="black"/>
<path d="M121 40H141V60H121V40Z" fill="black"/>
<path d="M1 40H21V60H1V40Z" fill="black"/>
<path d="M363 0H423V20H363V0Z" fill="black"/>
<path d="M343 20H363V40H343V20Z" fill="black"/>
<path d="M423 20H443V40H423V20Z" fill="black"/>
<path d="M443 40H463V60H443V40Z" fill="black"/>
<path d="M323 40H343V60H323V40Z" fill="black"/>
</svg>
