<svg width="461" height="260" viewBox="0 0 461 260" fill="none" xmlns="http://www.w3.org/2000/svg">
<path d="M40 0H100V20H40V0Z" fill="black"/>
<path d="M20 20H40V40H20V20Z" fill="black"/>
<path d="M100 20H120V40H100V20Z" fill="black"/>
<path d="M120 40H140V60H120V40Z" fill="black"/>
<path d="M0 40H20V60H0V40Z" fill="black"/>
<path d="M361 0H421V20H361V0Z" fill="black"/>
<path d="M341 20H361V40H341V20Z" fill="black"/>
<path d="M421 20H441V40H421V20Z" fill="black"/>
<path d="M441 40H461V60H441V40Z" fill="black"/>
<path d="M321 40H341V60H321V40Z" fill="black"/>
<path d="M20 100H120V140H20V100Z" fill="#B32F21"/>
<path d="M40 140H100V180H40V140Z" fill="#B32F21"/>
<path d="M60 180H80V200H60V180Z" fill="black"/>
<path d="M80 160H100V180H80V160Z" fill="black"/>
<path d="M100 140H120V160H100V140Z" fill="black"/>
<path d="M120 100H140V140H120V100Z" fill="black"/>
<path d="M80 100V80H120V100H80Z" fill="black"/>
<path d="M20 100V80H60V100H20Z" fill="black"/>
<path d="M20 140H40V160H20V140Z" fill="black"/>
<path d="M0 100H20V140H0V100Z" fill="black"/>
<path d="M60 100H80V120H60V100Z" fill="black"/>
<path d="M40 160H60V180H40V160Z" fill="black"/>
<path d="M80 120H100V140H80V120Z" fill="#EE6284"/>
<path d="M40 180H100V260H40V180Z" fill="#F8B0AB"/>
<path d="M20 240V200H120V240H20Z" fill="#F8B0AB"/>
<path d="M341 100H441V140H341V100Z" fill="#B32F21"/>
<path d="M361 140H421V180H361V140Z" fill="#B32F21"/>
<path d="M381 180H401V200H381V180Z" fill="black"/>
<path d="M401 160H421V180H401V160Z" fill="black"/>
<path d="M421 140H441V160H421V140Z" fill="black"/>
<path d="M441 100H461V140H441V100Z" fill="black"/>
<path d="M401 100V80H441V100H401Z" fill="black"/>
<path d="M341 100V80H381V100H341Z" fill="black"/>
<path d="M341 140H361V160H341V140Z" fill="black"/>
<path d="M321 100H341V140H321V100Z" fill="black"/>
<path d="M381 100H401V120H381V100Z" fill="black"/>
<path d="M361 160H381V180H361V160Z" fill="black"/>
<path d="M401 120H421V140H401V120Z" fill="#EE6284"/>
<path d="M361 180H421V260H361V180Z" fill="#F8B0AB"/>
<path d="M341 240V200H441V240H341Z" fill="#F8B0AB"/>
<path d="M161 141H181V181H161V141Z" fill="black"/>
<path d="M281 141H301V181H281V141Z" fill="black"/>
<path d="M241 201V181H281V201H241Z" fill="black"/>
<path d="M181 201V181H221V201H181Z" fill="black"/>
<path d="M221 181V161H241V181H221Z" fill="black"/>
</svg>
