<svg width="463" height="261" viewBox="0 0 463 261" fill="none" xmlns="http://www.w3.org/2000/svg">
<path d="M41 61H100V80.5H121V100.5H141V160.5H121V181H101V201H41V181H20V160.5H0V100.5H20V80.5H41V61Z" fill="black"/>
<path d="M100 80.5H41V100.5H20V160.5H41V181H101.5V160.5H121V100.5H100V80.5Z" fill="#455B71"/>
<path d="M21 200.5H120.5V240.5H100.5V260.5H40V240.5H21V200.5Z" fill="#F8B0AB"/>
<path d="M121 160.5H101.5V181H41V160.5H20V140.5H41V160.5H101.5V140.5H121V160.5Z" fill="#343D5A"/>
<path d="M100.5 100.5H79V122H100.5V100.5Z" fill="#EFFCF4"/>
<path d="M363 61H422V80.5H443V100.5H463V160.5H443V181H423V201H363V181H342V160.5H322V100.5H342V80.5H363V61Z" fill="black"/>
<path d="M422 80.5H363V100.5H342V160.5H363V181H423.5V160.5H443V100.5H422V80.5Z" fill="#455B71"/>
<path d="M343 200.5H442.5V240.5H422.5V260.5H362V240.5H343V200.5Z" fill="#F8B0AB"/>
<path d="M443 160.5H423.5V181H363V160.5H342V140.5H363V160.5H423.5V140.5H443V160.5Z" fill="#343D5A"/>
<path d="M422.5 100.5H401V122H422.5V100.5Z" fill="#EFFCF4"/>
<path d="M41 0H101V20H41V0Z" fill="black"/>
<path d="M21 20H41V40H21V20Z" fill="black"/>
<path d="M101 20H121V40H101V20Z" fill="black"/>
<path d="M121 40H141V60H121V40Z" fill="black"/>
<path d="M1 40H21V60H1V40Z" fill="black"/>
<path d="M362 1H422V21H362V1Z" fill="black"/>
<path d="M342 21H362V41H342V21Z" fill="black"/>
<path d="M422 21H442V41H422V21Z" fill="black"/>
<path d="M442 41H462V61H442V41Z" fill="black"/>
<path d="M322 41H342V61H322V41Z" fill="black"/>
<path d="M162 141H182V181H162V141Z" fill="black"/>
<path d="M282 141H302V181H282V141Z" fill="black"/>
<path d="M242 201V181H282V201H242Z" fill="black"/>
<path d="M182 201V181H222V201H182Z" fill="black"/>
<path d="M222 181V161H242V181H222Z" fill="black"/>
</svg>
