<svg width="463" height="281" viewBox="0 0 463 281" fill="none" xmlns="http://www.w3.org/2000/svg">
<path d="M41 81H100V100.5H121V120.5H141V180.5H121V201H101V221H41V201H20V180.5H0V120.5H20V100.5H41V81Z" fill="black"/>
<path d="M100 100.5H41V120.5H20V180.5H41V201H101.5V180.5H121V120.5H100V100.5Z" fill="#455B71"/>
<path d="M21 220.5H120.5V260.5H100.5V280.5H40V260.5H21V220.5Z" fill="#F8B0AB"/>
<path d="M121 180.5H101.5V201H41V180.5H20V160.5H41V180.5H101.5V160.5H121V180.5Z" fill="#343D5A"/>
<path d="M100.5 120.5H79V142H100.5V120.5Z" fill="#EFFCF4"/>
<path d="M363 81H422V100.5H443V120.5H463V180.5H443V201H423V221H363V201H342V180.5H322V120.5H342V100.5H363V81Z" fill="black"/>
<path d="M422 100.5H363V120.5H342V180.5H363V201H423.5V180.5H443V120.5H422V100.5Z" fill="#455B71"/>
<path d="M343 220.5H442.5V260.5H422.5V280.5H362V260.5H343V220.5Z" fill="#F8B0AB"/>
<path d="M443 180.5H423.5V201H363V180.5H342V160.5H363V180.5H423.5V160.5H443V180.5Z" fill="#343D5A"/>
<path d="M422.5 120.5H401V142H422.5V120.5Z" fill="#EFFCF4"/>
<path d="M141 0H121V20H141V0Z" fill="black"/>
<path d="M121 20H101V40H121V20Z" fill="black"/>
<path d="M101 40H81V60H101V40Z" fill="black"/>
<path d="M322 0H342V20H322V0Z" fill="black"/>
<path d="M342 20H362V40H342V20Z" fill="black"/>
<path d="M362 40H382V60H362V40Z" fill="black"/>
<path d="M202 202H262V222H202V202Z" fill="black"/>
<path d="M182 222H202V242H182V222Z" fill="black"/>
<path d="M262 222H282V242H262V222Z" fill="black"/>
</svg>
