<svg width="465" height="260" viewBox="0 0 465 260" fill="none" xmlns="http://www.w3.org/2000/svg">
<path d="M20 20V39.5H0.5V20H20V0H121V20H141.5V39.5H121V20H20Z" fill="black"/>
<path d="M41 60.5H100V80H121V100H141V160H121V180.5H101V200.5H41V180.5H20V160H0V100H20V80H41V60.5Z" fill="black"/>
<path d="M100 80H41V100H20V160H41V180.5H101.5V160H121V100H100V80Z" fill="#455B71"/>
<path d="M21 200H120.5V240H100.5V260H40V240H21V200Z" fill="#F8B0AB"/>
<path d="M121 160H101.5V180.5H41V160H20V140H41V160H101.5V140H121V160Z" fill="#343D5A"/>
<path d="M100.5 100H79V121.5H100.5V100Z" fill="#EFFCF4"/>
<path d="M343 20V39.5H323.5V20H343V0H444V20H464.5V39.5H444V20H343Z" fill="black"/>
<path d="M364 60.5H423V80H444V100H464V160H444V180.5H424V200.5H364V180.5H343V160H323V100H343V80H364V60.5Z" fill="black"/>
<path d="M423 80H364V100H343V160H364V180.5H424.5V160H444V100H423V80Z" fill="#455B71"/>
<path d="M344 200H443.5V240H423.5V260H363V240H344V200Z" fill="#F8B0AB"/>
<path d="M444 160H424.5V180.5H364V160H343V140H364V160H424.5V140H444V160Z" fill="#343D5A"/>
<path d="M423.5 100H402V121.5H423.5V100Z" fill="#EFFCF4"/>
<path d="M262 161H282V201H262V161Z" fill="black"/>
<path d="M181 161H201V201H181V161Z" fill="black"/>
<path d="M261.877 201V221H201L201 201H261.877Z" fill="black"/>
</svg>
