<svg width="463" height="281" viewBox="0 0 463 281" fill="none" xmlns="http://www.w3.org/2000/svg">
<path d="M41 81H100V100.5H121V120.5H141V180.5H121V201H101V221H41V201H20V180.5H0V120.5H20V100.5H41V81Z" fill="black"/>
<path d="M100 100.5H41V120.5H20V180.5H41V201H101.5V180.5H121V120.5H100V100.5Z" fill="#455B71"/>
<path d="M21 220.5H120.5V260.5H100.5V280.5H40V260.5H21V220.5Z" fill="#F8B0AB"/>
<path d="M121 180.5H101.5V201H41V180.5H20V160.5H41V180.5H101.5V160.5H121V180.5Z" fill="#343D5A"/>
<path d="M100.5 120.5H79V142H100.5V120.5Z" fill="#EFFCF4"/>
<path d="M363 81H422V100.5H443V120.5H463V180.5H443V201H423V221H363V201H342V180.5H322V120.5H342V100.5H363V81Z" fill="black"/>
<path d="M422 100.5H363V120.5H342V180.5H363V201H423.5V180.5H443V120.5H422V100.5Z" fill="#455B71"/>
<path d="M343 220.5H442.5V260.5H422.5V280.5H362V260.5H343V220.5Z" fill="#F8B0AB"/>
<path d="M443 180.5H423.5V201H363V180.5H342V160.5H363V180.5H423.5V160.5H443V180.5Z" fill="#343D5A"/>
<path d="M422.5 120.5H401V142H422.5V120.5Z" fill="#EFFCF4"/>
<path d="M40 0H100V20H40V0Z" fill="black"/>
<path d="M20 20H40V40H20V20Z" fill="black"/>
<path d="M100 20H120V40H100V20Z" fill="black"/>
<path d="M120 40H140V60H120V40Z" fill="black"/>
<path d="M0 40H20V60H0V40Z" fill="black"/>
<path d="M363 0H423V20H363V0Z" fill="black"/>
<path d="M343 20H363V40H343V20Z" fill="black"/>
<path d="M423 20H443V40H423V20Z" fill="black"/>
<path d="M443 40H463V60H443V40Z" fill="black"/>
<path d="M323 40H343V60H323V40Z" fill="black"/>
<path d="M202 180H262V200H202V180Z" fill="black"/>
<path d="M202 260H262V280H202V260Z" fill="black"/>
<path d="M262 260V200H282V260H262Z" fill="black"/>
<path d="M182 260V200H202V260H182Z" fill="black"/>
</svg>
