<svg width="465" height="321" viewBox="0 0 465 321" fill="none" xmlns="http://www.w3.org/2000/svg">
<path d="M141 0H121V20H141V0Z" fill="black"/>
<path d="M121 20H101V40H121V20Z" fill="black"/>
<path d="M101 40H81V60H101V40Z" fill="black"/>
<path d="M324 0H344V20H324V0Z" fill="black"/>
<path d="M344 20H364V40H344V20Z" fill="black"/>
<path d="M364 40H384V60H364V40Z" fill="black"/>
<path d="M183 221H283V281H183V221Z" fill="#EE6284"/>
<path d="M201 261H265V281H201V261Z" fill="#F0B5A6"/>
<path d="M41 83H100V102.5H121V122.5H141V182.5H121V203H101.5H41H21V182.5H0V122.5H21V102.5H41V83Z" fill="black"/>
<path d="M100 102.5H41V122.5H21V182.5H41V203H101.5V182.5H121V122.5H100V102.5Z" fill="#455B71"/>
<path d="M121 182.5H101.5V203H41V182.5H21V162.5H41V182.5H101.5V162.5H121V182.5Z" fill="#343D5A"/>
<path d="M100.5 122.5H79V144H100.5V122.5Z" fill="#EFFCF4"/>
<path d="M21 183H121V203H21V183Z" fill="black"/>
<path d="M21 203H121V221H21V203Z" fill="#41A0D9"/>
<path d="M21 221H121V321H21V221Z" fill="#96DBE1"/>
<path d="M365 83H424V102.5H445V122.5H465V182.5H445V203H425.5H365H345V182.5H324V122.5H345V102.5H365V83Z" fill="black"/>
<path d="M424 102.5H365V122.5H345V182.5H365V203H425.5V182.5H445V122.5H424V102.5Z" fill="#455B71"/>
<path d="M445 182.5H425.5V203H365V182.5H345V162.5H365V182.5H425.5V162.5H445V182.5Z" fill="#343D5A"/>
<path d="M424.5 122.5H403V144H424.5V122.5Z" fill="#EFFCF4"/>
<path d="M345 183H445V203H345V183Z" fill="black"/>
<path d="M345 203H445V221H345V203Z" fill="#41A0D9"/>
<path d="M345 221H445V321H345V221Z" fill="#96DBE1"/>
<path d="M183 201H283V221H183V201Z" fill="black"/>
<path d="M163 221H183V301H163V221Z" fill="black"/>
<path d="M283 221H303V301H283V221Z" fill="black"/>
<path d="M183 301V281H283V301H183Z" fill="black"/>
</svg>
