<svg width="463" height="260" viewBox="0 0 463 260" fill="none" xmlns="http://www.w3.org/2000/svg">
<path d="M363 60H422V79.5H443V99.5H463V159.5H443V180H423V200H363V180H342V159.5H322V99.5H342V79.5H363V60Z" fill="black"/>
<path d="M422 79.5H363V99.5H342V159.5H363V180H423.5V159.5H443V99.5H422V79.5Z" fill="#455B71"/>
<path d="M343 199.5H442.5V239.5H422.5V259.5H362V239.5H343V199.5Z" fill="#F8B0AB"/>
<path d="M443 159.5H423.5V180H363V159.5H342V139.5H363V159.5H423.5V139.5H443V159.5Z" fill="#343D5A"/>
<path d="M422.5 99.5H401V121H422.5V99.5Z" fill="#EFFCF4"/>
<path d="M20 200H119.5V240H99.5V260H39V240H20V200Z" fill="#F8B0AB"/>
<path d="M262 160H282V200H262V160Z" fill="black"/>
<path d="M181 160H201V200H181V160Z" fill="black"/>
<path d="M261.877 200V220H201L201 200H261.877Z" fill="black"/>
<path d="M343 0H443V20H343V0Z" fill="black"/>
<path d="M323 20H343V40H323V20Z" fill="black"/>
<path d="M443 20H463V40H443V20Z" fill="black"/>
<path d="M20 0H120V20H20V0Z" fill="black"/>
<path d="M0 20H20V40H0V20Z" fill="black"/>
<path d="M120 20H140V40H120V20Z" fill="black"/>
<path d="M0 121H140V141H0V121Z" fill="black"/>
</svg>
